<?xml version="1.0" encoding="utf-8"?>
<!-- Generator: Adobe Illustrator 16.0.0, SVG Export Plug-In . SVG Version: 6.00 Build 0)  -->
<!DOCTYPE svg PUBLIC "-//W3C//DTD SVG 1.1//EN" "http://www.w3.org/Graphics/SVG/1.1/DTD/svg11.dtd">
<svg version="1.1" xmlns="http://www.w3.org/2000/svg" xmlns:xlink="http://www.w3.org/1999/xlink" x="0px" y="0px" width="473px"
	 height="547px" viewBox="0 0 473 547" enable-background="new 0 0 473 547" xml:space="preserve">
<g id="Fills">
	<path fill="#29ABCA" d="M289.784,140.333c0,0,6.598,10,15.907,0l-0.023,48.465l-1.334,2.39l-1.614,3.979l-1.006,19.194l5.769,0.453
		v15.025l-5.595,1.11l0.832,26.551l-1.553,9.14l-2.346,11.434l0.968,6.771h-4.027l0.851-9.826L294.462,264l-2.085-6.097
		l0.629-28.064l-5.014-1.552l-0.702-12.655l5.066-1.298l1.287-19.412l-1.977-2.561l-1.883-4.194V140.333z"/>
	<path fill="#29ABCA" d="M293.667,313v5.337l1.871,1.167l1.87-0.5l-0.438-6.878C296.969,312.126,294.667,305.833,293.667,313z"/>
	<path fill="#29ABCA" d="M301.702,332.475L300.887,337l0.815,3.405l1.631,1.402l1.05-6.948l-0.619-4.612
		C303.765,330.247,302.904,322.282,301.702,332.475z"/>
	<path fill="#B189C6" d="M262.693,459.442c0,0,37.568-14.919,76.104-1.014l15.2,48.072l-1.584,11.229l-3.819,6.375L339,532.001
		l-12.335,4.553l-19.998,3.449l-16,0.057l-18.777-4.59l-13.078-6.439l-8.123-8.563l-2.871-10.966l1.583-8.094L262.693,459.442z"/>
</g>
<g id="Outline">
	<g>
		<g>
			<path fill="#333333" d="M298.907,285.341h-2.456l-1.051-0.754c0.8-10.755-2.985-26.525-3.023-26.684l-0.02-0.165v-27.01v0.985
				c0.063-0.194,0.058-1.393-0.016-1.494c-0.557-0.762-3.053-0.298-4.996-0.381l-0.055,1.788h-14.232v-18.327l14.934-0.129v1.749
				c2.607-0.091,3.898-0.667,4.374-0.946c0.039-1.811,0.197-10.11-0.007-15.038c-0.067-1.612-0.077-2.563-0.083-3.132
				c-0.003-0.365-0.007-0.654-0.024-0.724c-0.011-0.018-0.036-0.05-0.066-0.095c-0.125-0.184-0.333-0.492-0.653-1.154
				c-1.153-2.388-1.709-4.963-1.732-5.071l-0.015-0.146V9.725c-1.951-0.584-2.989-1.366-3.169-2.383
				c-0.222-1.257,0.994-2.139,1.133-2.236l0.18-0.125l19.62,0l0.18,0.125c0.139,0.097,1.355,0.979,1.132,2.236
				c-0.18,1.017-1.219,1.799-3.169,2.383v178.963l-0.015,0.073c-0.023,0.108-0.58,2.682-1.732,5.071
				c-0.319,0.662-0.528,0.969-0.653,1.153c-0.03,0.045-0.056,0.078-0.073,0.112c-0.011,0.054-0.014,0.343-0.018,0.708
				c-0.006,0.569-0.016,1.52-0.083,3.132c-0.199,4.782-0.055,12.743-0.011,14.862c0.753,0.181,2.237,0.491,3.554,0.491
				c0.386,0,0.728-0.027,1.021-0.079c0.361-0.777,1.254-2.352,2.558-2.352c1.435,0,2.176,1.853,2.419,2.461l0.048,0.21
				c0.097,1.328,0.565,2.509,0.865,2.509c0.386-0.028,0.703-0.004,1.043,0.022c0.186,0.015,0.371,0.029,0.548,0.029
				c0.458,0,0.93,0,1.18-1.568c0.445-2.78,1.512-7.658,2.17-8.975c0.694-1.386,1.979-1.445,3.607-1.52
				c0.228-0.01,0.469-0.021,0.723-0.036c0.202-0.012,0.419-0.032,0.647-0.052c0.458-0.04,0.977-0.086,1.503-0.086
				c2.717,0,4.172,1.411,4.322,4.193c0.074,0.667,1.859,17.359-0.012,26.664c-0.735,3.654-2.407,4.69-3.992,4.69
				c-0.463,0-0.888-0.051-1.316-0.088c-0.211-0.018-1.614,0.011-1.842,0c-1.628-0.074-2.946-0.818-3.64-2.205
				c-0.658-1.316-1.726-6.195-2.17-8.975c-0.25-1.568-0.723-1.568-1.18-1.568c-0.177,0-0.362,0.015-0.548,0.03
				c-0.34,0.026-0.686,0.051-1.029,0.021c0,0,0,0-0.001,0c-0.314,0-0.781,1.182-0.878,2.51l-0.048,0.21
				c-0.244,0.61-1.089,3.048-2.523,3.048c-1.304,0.001-2.092-2.16-2.454-2.938c-0.293-0.053-0.635-0.08-1.021-0.08
				c-1.22,0-2.575,0.263-3.369,0.447l-0.02,27.093c-0.038,0.159-3.823,15.929-3.023,26.684L298.907,285.341z M296.848,283.938h1.953
				c-0.585-10.625,2.763-24.93,3.087-26.282v-26.706l-0.366-1.117l0.702-0.2c0.097-0.027,2.385-0.671,4.437-0.671
				c0.661,0,1.239,0.068,1.716,0.203l0.333,0.095l0.128,0.321c0.343,0.855,1.015,1.812,1.403,1.812c0.175,0,0.594-0.315,1.077-1.482
				c0.075-0.853,0.486-3.865,2.386-3.694c0.269,0.019,0.538-0.001,0.804-0.022c0.223-0.018,0.443-0.034,0.656-0.034
				c1.47,0,2.262,0.849,2.566,2.75c0.477,2.973,1.511,7.511,2.041,8.569c0.309,0.618,0.862,0.674,2.415,0.746
				c0.233,0.011,0.48,0.022,0.742,0.039c0.208,0.012,0.427,0.03,0.651,0.049c0.398,0.036,0.811,0.071,1.213,0.071
				c1.527,0,2.645-0.503,3.138-2.951c1.828-9.093,0.009-26.102-0.01-26.273c-0.131-2.415-1.264-2.903-2.924-2.903
				c-0.464,0-0.929,0.041-1.379,0.081c-0.243,0.021-0.474,0.042-0.688,0.055c-0.261,0.015-0.508,0.026-0.741,0.037
				c-1.554,0.071-2.106,0.127-2.416,0.746c-0.53,1.058-1.564,5.596-2.041,8.569c-0.304,1.902-1.096,2.75-2.566,2.75
				c-0.213,0-0.433-0.015-0.656-0.033c-0.266-0.022-0.538-0.043-0.804-0.023c-0.044,0.004-0.087,0.005-0.131,0.005
				c-1.802,0-2.183-2.866-2.255-3.698c-0.482-1.167-0.901-1.483-1.077-1.483c-0.384,0-1.07,0.975-1.402,1.812l-0.128,0.322
				l-0.333,0.093c-0.477,0.136-1.055,0.204-1.716,0.204c-2.051,0-4.34-0.644-4.437-0.672l-0.498-0.141l-0.012-0.518
				c-0.002-0.097-0.231-9.911,0-15.484c0.066-1.59,0.076-2.527,0.082-3.086c0.01-0.949,0.012-1.12,0.333-1.593
				c0.11-0.162,0.276-0.407,0.551-0.976c0.979-2.03,1.512-4.267,1.607-4.685V8.649l0.525-0.137c2.409-0.629,2.643-1.29,2.666-1.416
				c0.042-0.234-0.208-0.534-0.399-0.712l-18.684,0c-0.2,0.185-0.44,0.482-0.398,0.714c0.023,0.125,0.26,0.786,2.666,1.414
				l0.524,0.137v179.887c0.095,0.419,0.631,2.662,1.608,4.685c0.275,0.569,0.441,0.814,0.551,0.976
				c0.32,0.473,0.323,0.644,0.332,1.593c0.005,0.559,0.016,1.497,0.082,3.086c0.232,5.573,0.003,15.387,0.001,15.484l-0.007,0.293
				l-0.213,0.2c-0.16,0.152-1.696,1.479-6.25,1.479h-0.702v-1.748l-12.127,0.104v14.861h11.537l-0.117-1.989h0.744
				c0.92,0,5.575,0.087,6.848,1.828c0.333,0.457,0.432,0.988,0.287,1.545v26.72C294.085,259.008,297.433,273.313,296.848,283.938z"
				/>
		</g>
		<g>
			<path fill="#333333" d="M299.258,10.742c-4.294,0-8.78-0.847-8.823-0.85l0.102-1.4c0.064,0.005,6.486,0.459,14.413-0.001
				l0.081,1.402C302.942,10.742,301.419,10.742,299.258,10.742z"/>
		</g>
		<g>
			<path fill="#333333" d="M297.177,192.361c-2.473,0-4.331-0.961-4.446-1.022c-0.343-0.181-0.474-0.606-0.292-0.948
				c0.181-0.341,0.605-0.472,0.947-0.292c0.045,0.023,3.717,1.896,7.298,0c0.344-0.183,0.768-0.049,0.949,0.292
				c0.182,0.342,0.051,0.768-0.292,0.948C299.892,192.104,298.452,192.361,297.177,192.361z"/>
		</g>
		<g>
			<path fill="#333333" d="M297.181,197.681c-1.5,0-2.328-0.481-2.378-0.511c-0.332-0.2-0.44-0.631-0.24-0.964
				c0.198-0.33,0.622-0.438,0.956-0.244c0.07,0.038,1.384,0.74,3.875-0.063c0.369-0.116,0.765,0.085,0.883,0.454
				c0.119,0.369-0.084,0.763-0.453,0.882C298.793,197.568,297.908,197.681,297.181,197.681z"/>
		</g>
		<g>
			<rect x="286.588" y="215.632" fill="#333333" width="1.403" height="12.655"/>
		</g>
		<g>
			<rect x="284.169" y="215.808" fill="#333333" width="1.403" height="12.048"/>
		</g>
		<g>
			<rect x="281.362" y="216.158" fill="#333333" width="1.403" height="11.347"/>
		</g>
		<g>
			<rect x="273.76" y="217.036" fill="#333333" width="5.263" height="1.403"/>
		</g>
		<g>
			<rect x="273.76" y="221.715" fill="#333333" width="5.263" height="1.404"/>
		</g>
		<g>
			<rect x="273.76" y="226.159" fill="#333333" width="5.263" height="1.404"/>
		</g>
		<g>
			<path fill="#333333" d="M273.23,225.801c-1.14-1.309-1.666-2.668-1.564-4.039c0.147-1.98,1.577-3.22,1.638-3.272l0.91,1.069
				l-0.455-0.535l0.458,0.532c-0.007,0.005-0.68,0.599-0.997,1.546c-0.408,1.224-0.049,2.494,1.068,3.776L273.23,225.801z"/>
		</g>
		<g>
			<path fill="#333333" d="M298.003,216.915c-2.225,0-3.813-0.591-3.907-0.626c-0.362-0.139-0.544-0.543-0.406-0.906
				c0.137-0.362,0.542-0.542,0.904-0.407l0,0c0.029,0.011,2.935,1.077,6.229,0.156c0.371-0.104,0.761,0.114,0.865,0.486
				c0.104,0.375-0.114,0.761-0.487,0.865C300.062,216.803,298.972,216.915,298.003,216.915z"/>
		</g>
		<g>
			<path fill="#333333" d="M294.345,228.989c-0.296,0-0.571-0.188-0.667-0.484c-0.12-0.369,0.082-0.765,0.45-0.886
				c0.137-0.043,3.407-1.081,7.082-0.005c0.372,0.11,0.585,0.499,0.476,0.871c-0.109,0.373-0.498,0.586-0.871,0.477
				c-3.262-0.958-6.222-0.017-6.252-0.007C294.49,228.978,294.417,228.989,294.345,228.989z"/>
		</g>
		<g>
			<rect x="307.483" y="214.814" fill="#333333" width="1.404" height="15.025"/>
		</g>
		<g>
			<polygon fill="#333333" points="312.861,227.83 311.458,228.99 311.458,215.632 312.861,215.632 			"/>
		</g>
		<g>
			<rect x="313.41" y="218.323" fill="#333333" width="1.404" height="8.538"/>
		</g>
		<g>
			<rect x="293.006" y="166" fill="#333333" width="9.714" height="1.404"/>
		</g>
		<g>
			<rect x="293.006" y="146.331" fill="#333333" width="9.714" height="1.403"/>
		</g>
		<g>
			<rect x="293.006" y="126.662" fill="#333333" width="9.714" height="1.403"/>
		</g>
		<g>
			<rect x="293.006" y="106.291" fill="#333333" width="9.714" height="1.404"/>
		</g>
		<g>
			<rect x="293.006" y="86.622" fill="#333333" width="9.714" height="1.404"/>
		</g>
		<g>
			<rect x="294.529" y="156.624" fill="#333333" width="6.667" height="1.403"/>
		</g>
		<g>
			<rect x="294.529" y="136.253" fill="#333333" width="6.667" height="1.403"/>
		</g>
		<g>
			<rect x="294.529" y="116.584" fill="#333333" width="6.667" height="1.403"/>
		</g>
		<g>
			<rect x="294.529" y="96.212" fill="#333333" width="6.667" height="1.404"/>
		</g>
	</g>
	<g>
		
			<ellipse fill="none" stroke="#333333" stroke-width="1.6128" stroke-miterlimit="10" cx="300.482" cy="357.058" rx="28.727" ry="6.958"/>
		<path fill="none" stroke="#333333" stroke-width="1.6128" stroke-linecap="round" stroke-miterlimit="10" d="M275.99,355.951
			c0,0,26.005,7.459,48.987,0"/>
		<path fill="none" stroke="#333333" stroke-width="0.8064" stroke-linecap="round" stroke-miterlimit="10" d="M283.852,355.951
			c0,0,15.523-4.032,34.069,0"/>
		<path fill="none" stroke="#333333" stroke-width="1.6128" stroke-miterlimit="10" d="M276.797,360.695v46.462
			c0,0,1.21,8.063-3.024,18.95c-4.233,10.886-25.602,79.227-25.602,79.227s-3.427,14.717,11.088,23.99
			c14.514,9.273,32.054,11.087,40.722,10.684l1.854-0.004c8.668,0.403,26.208-1.41,40.722-10.685
			c14.516-9.272,11.088-23.99,11.088-23.99s-21.37-68.34-25.603-79.226c-4.234-10.887-3.024-18.951-3.024-18.951V360.69"/>
		<path fill="none" stroke="#333333" stroke-width="0.8064" stroke-linecap="round" stroke-miterlimit="10" d="M286.271,411.524
			c0,0,14.381,6.989,27.686,0"/>
		<path fill="none" stroke="#333333" stroke-width="0.8064" stroke-linecap="round" stroke-miterlimit="10" d="M262.928,526.524
			c-0.989-0.971-1.517-1.993-1.517-3.05c0-6.235,18.412-11.289,41.125-11.289c22.712,0,41.125,5.054,41.125,11.289
			c0,1.905-1.719,3.699-4.752,5.273"/>
	</g>
	<g>
		<g>
			<path fill="#333333" d="M295.841,300.431c-1.932,5.119,0.802,9.953,0.845,15.15c0.005,0.641,0.025,1.278,0.015,1.92
				c0.243,1.454-0.393,1.761-1.908,0.921c-0.139-0.728-0.197-1.46-0.177-2.197c-0.029-2.03,0.573-3.923-0.209-5.862
				c-0.121-0.3-0.597-0.469-0.771-0.101c-1.103,2.321-2.227,12.956,3.06,10.873c1.726-0.68,1.44-3.593,1.354-4.987
				c-0.319-5.199-3.396-10.463-1.892-15.629C296.218,300.312,295.915,300.237,295.841,300.431L295.841,300.431z"/>
		</g>
	</g>
	<g>
		<g>
			<path fill="#333333" d="M303.137,323.087c-1.146,6.186,1.539,12.4-0.799,18.447c0.424-0.24,0.847-0.48,1.27-0.721
				c-2.857-1-0.657-7.551-1.179-9.791c-0.072-0.309-0.53-0.453-0.744-0.196c-2.351,2.813-2.843,10.575,1.374,11.977
				c0.567,0.188,1.083-0.216,1.27-0.72c2.332-6.333-0.493-12.521-0.792-18.941C303.527,322.923,303.181,322.853,303.137,323.087
				L303.137,323.087z"/>
		</g>
	</g>
	<g>
		<g>
			<path fill="#FFFFFF" d="M268.19,464.706c1.767,4.334,6.639,4.907,10.764,5.711c7.017,1.368,14.9,3.17,21.831,0.68
				c0.476-0.171,0.394-0.843-0.118-0.875c-5.385-0.334-10.714-0.076-16.1-0.671c-4.729-0.521-13.05-0.547-16.105-4.959
				C268.372,464.463,268.123,464.541,268.19,464.706L268.19,464.706z"/>
		</g>
	</g>
	<g>
		<g>
			<path fill="#FFFFFF" d="M309.667,471.188c0.249,0.024-0.014-0.171,0.076-0.019c0.075,0.129,0.211,0.159,0.342,0.203
				c0.607,0.206,1.297,0.26,1.932,0.277c1.282,0.035,2.725,0.093,3.804-0.72c0.19-0.143,0.213-0.496-0.073-0.557
				c-1.266-0.267-2.448-0.197-3.731-0.089c-0.599,0.051-1.187,0.14-1.77,0.292c-0.142,0.037-0.343,0.075-0.452,0.185
				c-0.232,0.232,0.155,0.024-0.128,0.052C309.426,470.836,309.426,471.164,309.667,471.188L309.667,471.188z"/>
		</g>
	</g>
	<g>
		<g>
			<path fill="#FFFFFF" d="M318.601,470.575c1.479,0.229,3.841,0.087,4.656-1.426c0.132-0.245-0.083-0.477-0.335-0.436
				c-0.722,0.117-1.396,0.555-2.096,0.777c-0.731,0.233-1.468,0.461-2.224,0.602C318.364,470.137,318.357,470.537,318.601,470.575
				L318.601,470.575z"/>
		</g>
	</g>
	<g>
		<g>
			<path fill="#FFFFFF" d="M335.244,461.676c-0.18,0.04-0.286,0.088-0.437,0.204c-0.838,0.639-1.549,1.447-2.413,2.079
				c-1.594,1.168-3.67,1.733-4.698,3.53c-0.166,0.29,0.104,0.564,0.397,0.517c2.102-0.34,4.065-1.708,5.707-3.005
				c0.813-0.642,2.062-1.938,1.857-3.09C335.625,461.724,335.41,461.64,335.244,461.676L335.244,461.676z"/>
		</g>
	</g>
</g>
<g id="Text">
	<g>
		<g>
			<g>
				<path fill="#333333" d="M5.38,159.156c4.182,1.019,8.654,0.958,12.934,1.283c3.267,0.247,9.158,1.735,11.919-0.358
					c0.47-0.357,0.787-1.171,0.209-1.625c-2.657-2.085-7.293-1.189-10.533-1.331c-4.745-0.207-9.868-0.719-14.528,0.352
					C4.539,157.67,4.554,158.955,5.38,159.156L5.38,159.156z"/>
			</g>
		</g>
		<g>
			<g>
				<path fill="#333333" d="M17.629,160.172c0.055-0.054,0.11-0.106,0.166-0.16c0.334-0.323,0.327-0.889,0-1.213
					c-0.031-0.029-0.062-0.06-0.092-0.09c-0.689-0.681-1.829-0.172-1.857,0.77c-0.078,2.563,0.148,5.078-0.081,7.646
					c-0.263,2.93-0.791,5.961-0.621,8.902c0.095,1.638,1.679,2.508,3.132,1.797c0.358-0.176,0.649-0.52,0.826-0.869
					c0.46-0.909,0.232-1.966-0.658-2.514c0.658,0.404-0.243-0.192-0.378-0.23c-0.543-0.148-0.982,0.021-1.478,0.23
					c0.838,0.22,1.676,0.438,2.514,0.658c-0.177-0.35-0.468-0.693-0.826-0.869c0.343,0.599,0.687,1.198,1.03,1.797
					c0.293-3.27,0.512-6.652,0.409-9.934c-0.047-1.483-0.244-2.953-0.503-4.412c-0.045-0.253-0.974-2.984-1.197-2.048
					c-0.42,0.171-0.839,0.341-1.259,0.512c0.06,0.039,0.12,0.077,0.181,0.115C17.154,160.4,17.449,160.346,17.629,160.172
					L17.629,160.172z"/>
			</g>
		</g>
		<g>
			<g>
				<path fill="#333333" d="M25.686,169.436c-0.868,1.166-0.934,3.118-1.056,4.51c-0.151,1.718-0.36,4.239,1.355,5.227
					c1.001,0.575,1.985-0.018,2.388-0.972c0.533-1.264-0.3-3.342-0.376-4.714c-0.07-1.253,0.043-2.954-0.661-4.051
					C26.919,168.787,26.114,168.858,25.686,169.436L25.686,169.436z"/>
			</g>
		</g>
		<g>
			<g>
				<path fill="#333333" d="M26.912,166.83c0.997,0,1.829-0.833,1.829-1.83s-0.832-1.83-1.829-1.83c-0.998,0-1.83,0.833-1.83,1.83
					S25.914,166.83,26.912,166.83L26.912,166.83z"/>
			</g>
		</g>
		<g>
			<g>
				<path fill="#333333" d="M38.401,157.72c-2.012,1.748-1.504,8.027-1.639,10.471c-0.132,2.402-0.933,10.607,2.255,11.574
					c0.836,0.253,1.506-0.302,1.805-1.024c0.371-0.897,0.097-2.251-0.091-3.189c-0.543-2.718-0.582-5.453-0.69-8.212
					c-0.09-2.304,0.848-7.916-1.024-9.619C38.832,157.551,38.587,157.558,38.401,157.72L38.401,157.72z"/>
			</g>
		</g>
		<g>
			<g>
				<path fill="#333333" d="M35.514,168.269c2.321-0.128,5.286,0.629,7.415-0.448c1.232-0.623,0.85-2.464-0.368-2.817
					c-1.259-0.366-2.748-0.09-4.027,0.078c-1.265,0.167-2.507,0.429-3.563,1.18C34.167,166.832,34.354,168.332,35.514,168.269
					L35.514,168.269z"/>
			</g>
		</g>
		<g>
			<g>
				<path fill="#333333" d="M46.724,169.934c0.161,1.272,0.539,2.516,0.7,3.801c0.174,1.39,0.262,2.782,0.529,4.16
					c0.332,1.714,3.198,1.332,3.052-0.413c-0.136-1.628,0.065-3.377,0.4-4.969c0.172-0.813,0.409-1.593,0.87-2.289
					c0.16-0.241,0.211-0.081,0.009-0.066c0.188-0.014,0.76,0.394,1.022,0.546c1.59,0.923,3.053-1.154,1.896-2.458
					c-0.952-1.074-2.488-1.725-3.903-1.228c-1.379,0.484-2.074,1.736-2.597,3.01c-0.962,2.351-1.166,5.371-0.75,7.867
					c0.999-0.275,1.997-0.551,2.996-0.826c-0.655-2.34-1.023-6.233-3.181-7.734C47.365,169.054,46.659,169.421,46.724,169.934
					L46.724,169.934z"/>
			</g>
		</g>
		<g>
			<g>
				<path fill="#333333" d="M67.073,170.806c-2.796-5.492-11.599,2.201-8.366,6.523c1.255,1.678,3.532,1.748,5.326,0.971
					c2.305-0.998,3.493-3.309,3.456-5.753c-0.029-1.919-2.96-1.921-2.979,0c-0.021,2.247,0.073,4.137,2.375,5.103
					c1.765,0.741,4.408-0.216,3.741-2.437c-0.152-0.509-0.818-0.869-1.299-0.528c-0.408,0.289-1.207,0.289-1.672,0.094
					c-0.405-0.172-0.171-1.89-0.167-2.231c-0.993,0-1.985,0-2.979,0c0.019,1.4-1.254,4.016-3.139,3.209
					c-1.496-0.641,2.663-6.282,4.804-4.258C66.658,171.954,67.367,171.381,67.073,170.806L67.073,170.806z"/>
			</g>
		</g>
		<g>
			<g>
				<path fill="#333333" d="M77.338,159.036c-1.779,5.936-3.197,13.334-1.51,19.438c0.541,1.955,3.708,1.009,2.988-0.824
					c-0.197-0.503-0.37-0.9-0.627-1.376c-0.253-0.466-0.884-0.396-1.152,0c-0.165,0.15-0.331,0.3-0.497,0.45
					c0.777,0.446,1.555,0.892,2.332,1.338c-0.07-6.32-0.992-12.515-0.385-18.87C78.553,158.513,77.521,158.426,77.338,159.036
					L77.338,159.036z"/>
			</g>
		</g>
		<g>
			<g>
				<path fill="#333333" d="M72.8,168.565c-0.823,3.57,8.06,2.933,9.216,0.769c0.391-0.729,0.085-1.841-0.819-2.016
					c-1.184-0.229-2.749,0.467-3.902,0.771c-0.672,0.178-1.353,0.3-2.047,0.341c-0.209,0.013-0.437,0.019-0.644-0.014
					c-0.306-0.048-0.421-0.108-0.386-0.036C73.923,167.777,72.945,167.935,72.8,168.565L72.8,168.565z"/>
			</g>
		</g>
		<g>
			<g>
				<path fill="#333333" d="M82.726,170.688c-0.89,1.86-1.255,6.26,0.856,7.425c1.153,0.636,2.773-0.711,1.92-1.92
					c-0.047-0.065-0.093-0.132-0.14-0.197c-0.3-0.424-0.694-0.581-1.205-0.49c-0.08,0.015-0.16,0.028-0.24,0.043
					c0.575,0.575,1.15,1.15,1.726,1.726c0.242-1.199-0.396-2.21-0.718-3.351c-0.308-1.089-0.318-2.206-0.813-3.235
					C83.86,170.164,82.977,170.163,82.726,170.688L82.726,170.688z"/>
			</g>
		</g>
		<g>
			<g>
				<path fill="#333333" d="M85.565,164.317c0.013-0.047,0.024-0.094,0.036-0.14c-0.116,0.15-0.232,0.302-0.349,0.453
					c0.061-0.039,0.122-0.078,0.183-0.117c1.072-0.689,0.389-2.349-0.863-2.048c-0.523,0.125-0.913,0.515-1.163,0.975
					c0.202-0.202,0.404-0.404,0.606-0.606c-0.74,0.513-1.138,1.355-0.848,2.246c0.548,1.681,2.856,1.681,3.404,0
					c0.29-0.891-0.107-1.733-0.848-2.246c0.202,0.202,0.404,0.404,0.606,0.606c-0.25-0.46-0.64-0.85-1.163-0.975
					c-1.252-0.301-1.936,1.358-0.863,2.048c0.061,0.039,0.122,0.078,0.183,0.117c-0.116-0.151-0.232-0.303-0.349-0.453
					c0.012,0.046,0.023,0.093,0.036,0.14C84.352,165.007,85.389,165.007,85.565,164.317L85.565,164.317z"/>
			</g>
		</g>
		<g>
			<g>
				<path fill="#333333" d="M92.626,169.766c-3.131-0.8-4.582,2.89-4.219,5.472c0.412,2.922,3.812,3.748,6.245,2.773
					c2.07-0.828,4.156-3.079,3.841-5.477c-0.162-1.229-0.81-2.187-1.874-2.826c-1.115-0.671-3.355-0.97-4.257,0.168
					c-0.176,0.224-0.188,0.471,0,0.693c0.845,0.993,3.036,0.781,3.387,2.023c0.226,0.803-0.572,2-1.45,2.591
					c-0.666,0.449-2.828,1.084-3.227-0.023c-0.312-0.867-0.017-3.966,1.348-3.871C93.305,171.351,93.462,169.979,92.626,169.766
					L92.626,169.766z"/>
			</g>
		</g>
		<g>
			<g>
				<path fill="#333333" d="M101.397,170.639c-0.362,2.443-0.307,4.958-0.445,7.423c-0.062,1.093,1.562,1.875,2.284,0.946
					c1.798-2.31,3.491-7.142,6.691-7.698c-0.585-0.332-1.17-0.664-1.755-0.997c0.397,2.034-0.496,4.085,0.084,6.107
					c0.619,2.155,3.421,2.965,5.215,1.813c0.588-0.377,0.53-1.116,0-1.504c-1.291-0.945-2.44-0.623-2.417-2.475
					c0.021-1.607,0.215-3.105-0.13-4.7c-0.174-0.807-1.026-1.133-1.755-0.997c-3.876,0.723-6.191,5.809-8.035,8.828
					c0.831,0.226,1.662,0.451,2.493,0.676c-0.141-2.458-0.13-5.098-1.023-7.423C102.41,170.133,101.498,169.957,101.397,170.639
					L101.397,170.639z"/>
			</g>
		</g>
		<g>
			<g>
				<path fill="#333333" d="M157.094,163.546c-0.321-4.291-5.438-4.775-8.842-4.734c-3.736,0.044-7.633,3.253-4.035,6.612
					c3.516,3.281,8.771,3.968,12.343,7.395c1.995,1.915-2.305,2.127-3.04,2.091c-1.083-0.053-2.191-0.452-3.212-0.785
					c-2.598-0.848-4.555-2.175-5.701-4.657c-0.325-0.706-1.223-0.487-1.598,0c-4.438,5.76,14.941,13.815,17.278,5.317
					c1.258-4.572-5.78-7.78-9.042-9.255c-1.13-0.511-2.254-1.021-3.353-1.598c-1.151-0.604-2.565-1.423-0.514-1.906
					c2.487-0.586,6.813-0.403,8.219,1.926C155.989,164.599,157.156,164.374,157.094,163.546L157.094,163.546z"/>
			</g>
		</g>
		<g>
			<g>
				<path fill="#333333" d="M166.021,173.639c1.522,0.544,3.473,0.468,4.519-0.903c1.001-1.312,0.714-2.95-0.826-3.662
					c-2.739-1.268-6.248,1.137-6.413,4.048c-0.149,2.618,2.438,4.598,4.605,5.422c1.969,0.747,6.695,0.247,6.077-2.855
					c-0.116-0.582-0.74-0.804-1.256-0.713c-0.575,0.101-1.067,0.596-1.563,0.896c-0.482,0.292-1.03,0.293-1.575,0.25
					c-1.203-0.093-2.335-0.938-3.101-1.809c-0.749-0.85-0.594-1.706,0.205-2.417c0.446-0.397,1.728-1.113,2.316-0.654
					c0.361,0.281-0.941,0.876-1.084,0.915c-0.635,0.175-1.284,0.235-1.905,0.46C165.519,172.797,165.515,173.458,166.021,173.639
					L166.021,173.639z"/>
			</g>
		</g>
		<g>
			<g>
				<path fill="#333333" d="M177.68,159.097c-2.318,2.178-1.315,6.108-1.474,8.929c-0.166,2.946-1.32,6.86,0.173,9.608
					c0.758,1.395,2.916,0.433,2.52-1.062c-0.676-2.548-0.263-5.407-0.17-8.014c0.107-3.017-1.033-5.949-0.139-8.933
					C178.751,159.087,178.065,158.734,177.68,159.097L177.68,159.097z"/>
			</g>
		</g>
		<g>
			<g>
				<path fill="#333333" d="M173.873,168.617c1.342,0.624,2.989,0.664,4.447,0.771c1.507,0.109,3.263-0.073,4.359-1.229
					c0.494-0.521,0.112-1.264-0.549-1.324c-1.42-0.132-2.858-0.064-4.283-0.057c-1.325,0.009-2.735-0.132-3.975,0.405
					C173.318,167.424,173.341,168.37,173.873,168.617L173.873,168.617z"/>
			</g>
		</g>
		<g>
			<g>
				<path fill="#333333" d="M184.185,171.117c-1.823,1.886-2.366,7.735,1.57,7.202c2.717-0.368,5.103-4.104,5.249-6.644
					c0.074-1.274-1.444-1.593-2.263-0.938c-3.411,2.732,0.231,7.674,3.992,6.544c0.733-0.221,1.057-1.428,0.233-1.787
					c-1.169-0.509-4.179-1.423-2.351-2.882c-0.755-0.313-1.509-0.625-2.263-0.938c-0.083,1.37-1.362,2.94-2.42,3.721
					c-0.635,0.468-0.683,0.297-0.71-0.6c-0.034-1.134,0.55-2.194,0.28-3.331C185.368,170.889,184.589,170.7,184.185,171.117
					L184.185,171.117z"/>
			</g>
		</g>
		<g>
			<g>
				<path fill="#333333" d="M195.965,172.945c1.787,4.215-1.641,10.024,1.387,13.703c0.766,0.93,2.106,0.281,2.451-0.647
					c0.162-0.436,0.135-0.762-0.007-1.199c-0.119-0.364-0.433-0.631-0.827-0.63c-0.194,0.011-0.388,0.001-0.58-0.027
					c0.472,0.359,0.942,0.718,1.414,1.077c-0.471-2.699-0.316-5.264-0.399-7.996c-0.059-1.915-0.454-4.43-2.358-5.36
					C196.29,171.497,195.658,172.222,195.965,172.945L195.965,172.945z"/>
			</g>
		</g>
		<g>
			<g>
				<path fill="#333333" d="M196.983,172.499c-0.332-0.299-0.225-0.021-0.25-0.252c0.039,0.365-0.456,0.562-0.05,0.343
					c-0.073,0.039,0.316-0.078,0.276-0.068c0.731-0.183,1.5-0.323,2.248-0.414c0.745-0.091,1.497-0.135,2.247-0.135
					c0.14,0.001,1.016,0.071,0.514-0.001c0.312,0.045,0.708,0.245,0.952,0.438c0.986,0.78,0.796,2.092,0.115,2.92
					c-1.065,1.296-1.99,0.405-3.569,0.488c-0.676,0.035-1.055,0.594-0.941,1.237c0.264,1.504,2.006,2.246,3.373,2.267
					c1.363,0.021,2.714-0.833,3.532-1.872c1.805-2.291,1.802-5.624-0.634-7.47c-2.145-1.626-4.857-0.928-7.221-0.194
					c-0.909,0.282-2.169,0.817-2.497,1.815c-0.354,1.076,0.564,1.543,1.44,1.694C196.951,173.37,197.369,172.848,196.983,172.499
					L196.983,172.499z"/>
			</g>
		</g>
		<g>
			<g>
				<path fill="#333333" d="M15.111,184.03c15.586,2.085,31.867,0.996,47.578,0.991c16.454-0.006,32.908-0.005,49.361-0.044
					c32.249-0.078,64.867,1.14,97.061-0.894c0.719-0.045,0.719-1.07,0-1.115c-32.193-2.033-64.812-0.815-97.061-0.894
					c-15.794-0.038-31.589-0.038-47.383-0.043c-16.354-0.005-33.333-1.18-49.557,0.99C14.464,183.109,14.464,183.943,15.111,184.03
					L15.111,184.03z"/>
			</g>
		</g>
	</g>
	<g>
		<g>
			<g>
				<path fill="#333333" d="M339.587,113.163c-0.779,1.335-1.032,2.875-1.272,4.386c-0.256,1.603-0.828,3.463-0.797,5.075
					c0.018,0.929,1.46,0.93,1.441,0c-0.007-0.367-0.168-0.659-0.428-0.902c-0.169-0.158-0.417-0.158-0.586,0
					c-0.26,0.244-0.421,0.536-0.428,0.902c-0.019,0.93,1.424,0.929,1.441,0c0.027-1.413,0.437-2.942,0.584-4.358
					c0.17-1.623,0.364-3.226,0.716-4.82C340.347,113.046,339.803,112.793,339.587,113.163L339.587,113.163z"/>
			</g>
		</g>
		<g>
			<g>
				<path fill="#333333" d="M334.496,111.349c-0.077-0.663,4.507-0.714,5.163-0.714c1.075,0,2.12-0.002,3.168,0.28
					c3.357,0.902-1.319,3.702-2.46,4.027c-0.832,0.237-0.67,1.511,0.204,1.508c1.527-0.005,3.398-0.463,4.677,0.613
					c1.796,1.511,0.454,3.495-1.024,4.072c-0.693,0.271-1.46,0.308-2.194,0.326c-2.339,0.06-5.182-0.858-6.211-3.118
					c-0.27-0.592-1.331-0.316-1.252,0.339c0.524,4.336,7.24,5.168,10.506,3.875c2.009-0.795,3.212-3.206,2.213-5.238
					c-1.416-2.884-3.919-2.53-6.714-2.405c0.068,0.502,0.136,1.005,0.204,1.508c1.446-0.478,4.438-1.843,4.473-3.74
					c0.037-1.991-1.241-3.055-3.173-3.235c-0.969-0.09-9.362-0.138-8.06,2.032C334.138,111.683,334.527,111.616,334.496,111.349
					L334.496,111.349z"/>
			</g>
		</g>
		<g>
			<g>
				<path fill="#333333" d="M350.467,117.015c-0.225,1.917-0.907,3.736-1.005,5.667c-0.018,0.333,0.248,0.673,0.57,0.749
					c4.333,1.016,5.531-4.026,6.322-7.2c-0.522-0.144-1.044-0.288-1.566-0.432c-0.368,1.88-0.602,3.874-0.22,5.769
					c0.31,1.536,2.634,3.351,3.693,1.323c0.128-0.244,0.015-0.523-0.247-0.608c-0.522-0.168-1.134,0.065-1.553-0.353
					c-0.414-0.413-0.415-1.338-0.444-1.87c-0.069-1.275,0.095-2.579,0.337-3.829c0.196-1.017-1.313-1.458-1.566-0.432
					c-0.526,2.135-1.236,6.81-4.344,6.133c0.19,0.25,0.381,0.5,0.57,0.749c0.067-1.927,0.982-3.881,0.312-5.783
					C351.155,116.413,350.523,116.53,350.467,117.015L350.467,117.015z"/>
			</g>
		</g>
		<g>
			<g>
				<path fill="#333333" d="M361.521,117.015c-0.243,1.993,0.164,4.011-0.063,6c0.52,0,1.039,0,1.559,0
					c0.174-1.328-0.165-2.689,0.017-4.032c0.162-1.203,1.688-3.256,2.109-1.091c0.179,0.92,1.494,0.633,1.55-0.21
					c0.171-2.604-2.597-3.077-4.202-1.52c-1.667,1.617-1.333,4.995-1.005,7.061c0.158,0.998,1.642,0.563,1.504-0.415
					c-0.275-1.958-0.426-3.937-0.717-5.894C362.204,116.448,361.568,116.627,361.521,117.015L361.521,117.015z"/>
			</g>
		</g>
		<g>
			<g>
				<path fill="#333333" d="M369.281,119.518c0.38,0.845,1.851,0.786,2.544,0.416c0.793-0.423,1.411-1.183,1.624-2.06
					c0.174-0.713-0.105-1.496-0.876-1.669c-1.143-0.256-2.469,0.799-3.167,1.575c-1.642,1.823-0.668,4.222,1.175,5.424
					c1.411,0.92,4.82,0.992,4.514-1.522c-0.048-0.39-0.571-0.774-0.894-0.37c-0.326,0.408-0.558,0.933-1.09,1.097
					c-0.504,0.156-1.091-0.049-1.54-0.275c-1.023-0.515-2.036-1.726-1.521-2.924c0.332-0.773,1.147-1.401,1.914-1.7
					c0.399-0.157,0.367-0.166,0.248,0.258c-0.141,0.497-0.541,0.906-0.979,1.153c-0.612,0.345-1.134-0.025-1.751,0.104
					C369.251,119.073,369.198,119.333,369.281,119.518L369.281,119.518z"/>
			</g>
		</g>
		<g>
			<g>
				<path fill="#333333" d="M379.3,111.607c-0.554,1.553-0.509,3.377-0.619,5.008c-0.145,2.128-0.328,4.267-0.268,6.4
					c0.023,0.838,1.091,1.104,1.538,0.417c0.06-0.091,0.119-0.183,0.179-0.274c0.121-0.187,0.14-0.516,0-0.701
					c-0.076-0.1-0.152-0.2-0.229-0.301c-0.151-0.201-0.402-0.257-0.601-0.077c-0.094,0.047-0.188,0.094-0.282,0.141
					c0.349,0.265,0.697,0.531,1.045,0.796c0.082-2.131,0.065-4.268,0.095-6.4c0.022-1.62,0.216-3.453-0.315-5.008
					C379.75,111.336,379.395,111.342,379.3,111.607L379.3,111.607z"/>
			</g>
		</g>
		<g>
			<g>
				<path fill="#333333" d="M376.551,116.369c1.548,1.222,4.389,1.674,6.139,0.617c0.649-0.393,0.193-1.266-0.487-1.156
					c-1.625,0.263-3.528,0.62-5.046-0.246C376.678,115.31,376.094,116.008,376.551,116.369L376.551,116.369z"/>
			</g>
		</g>
		<g>
			<g>
				<path fill="#333333" d="M384.861,111.911c-0.799,2.185-0.998,4.634-1.197,6.938c-0.112,1.304-0.722,3.442,0.237,4.503
					c0.171,0.188,0.502,0.182,0.674,0c0.887-0.941,0.555-2.721,0.618-3.936c0.129-2.465,0.385-4.934,0.436-7.401
					C385.639,111.551,385.007,111.514,384.861,111.911L384.861,111.911z"/>
			</g>
		</g>
		<g>
			<g>
				<path fill="#333333" d="M381.755,118.891c1.456,0.356,3.264,0.644,4.712,0.14c1.056-0.368,0.614-2.042-0.466-1.688
					c-1.37,0.448-2.853,0.156-4.246,0.464C381.209,117.927,381.225,118.761,381.755,118.891L381.755,118.891z"/>
			</g>
		</g>
		<g>
			<g>
				<path fill="#333333" d="M389.151,119.998c1.086,0.295,2.354,0.322,3.149-0.603c0.545-0.634,0.605-1.616,0.226-2.349
					c-1.274-2.459-3.983-0.493-4.677,1.34c-0.913,2.411,0.875,4.25,3.015,5.041c1.683,0.621,5.502,0.666,5.896-1.734
					c0.097-0.586-0.56-1.067-1.035-0.603c-1.009,0.981-1.876,1.316-3.314,1.183c-1.234-0.115-2.843-0.765-3.332-1.999
					c-0.388-0.978,0.69-3.728,2.02-3.056c0.418,0.211,0.544,0.768,0.444,1.184c-0.209,0.873-1.64,0.915-2.305,0.951
					C388.876,119.373,388.782,119.898,389.151,119.998L389.151,119.998z"/>
			</g>
		</g>
	</g>
	<g>
		<g>
			<g>
				<g>
					<path fill="#1C758A" d="M350.482,266.676c-0.158-0.019-0.316-0.037-0.475-0.056c-0.582-0.069-0.573,0.839,0,0.908
						c2.685,0.325,5.439,0.247,8.142,0.372c1.92,0.088,5.904,0.447,6.964-1.652c0.105-0.21-0.019-0.545-0.297-0.517
						c-2.516,0.251-4.821,0.783-7.412,0.723c-2.46-0.057-4.947-0.13-7.396,0.167c-0.573,0.069-0.582,0.977,0,0.908
						c0.158-0.019,0.316-0.037,0.475-0.056C350.995,267.412,350.995,266.736,350.482,266.676L350.482,266.676z"/>
				</g>
			</g>
			<g>
				<g>
					<path fill="#1C758A" d="M356.573,268.165c0.078,0.008,0.156,0.017,0.235,0.025c-0.237-0.097-0.559,0.059-0.673,0.273
						c-1.454,2.727-1.655,6.908-1.647,9.944c0.004,1.184,1.566,1.271,1.952,0.264c0.178-0.347,0.274-0.715,0.289-1.104
						c0.072-0.491-0.386-0.976-0.884-0.679c-0.469,0.28-0.665,0.437-1.066,0.817c0.566,0.234,1.132,0.468,1.697,0.703
						c0.07-3.177,0.288-6.339,0.747-9.486c0.036-0.243-0.012-0.559-0.273-0.672c0.066,0.083,0.132,0.167,0.197,0.25
						C357.255,268.185,356.789,267.894,356.573,268.165L356.573,268.165z"/>
				</g>
			</g>
			<g>
				<g>
					<path fill="#1C758A" d="M360.387,272.623c-0.461,1.792-0.539,3.937-0.555,5.785c-0.011,1.299,2.122,1.231,1.969,0
						c-0.082-0.663,0.148-1.101-0.342-1.643c-0.119-0.132-0.382-0.182-0.53-0.068c-0.418,0.319-0.727,0.743-0.962,1.215
						c0.611,0.166,1.223,0.331,1.834,0.497c-0.016-1.848-0.094-3.993-0.555-5.785C361.137,272.197,360.496,272.197,360.387,272.623
						L360.387,272.623z"/>
				</g>
			</g>
			<g>
				<g>
					<path fill="#1C758A" d="M361.513,269.222c-0.627,0.296-0.927,0.853-1.007,1.52c-0.15,1.253,2.092,1.263,1.953,0
						c-0.032-0.292-0.153-0.563-0.063-0.84C362.574,269.356,361.955,269.013,361.513,269.222L361.513,269.222z"/>
				</g>
			</g>
			<g>
				<g>
					<path fill="#1C758A" d="M368.115,267.741c0.078,3.726-1.923,7.254-1.9,11c0.007,1.115,1.469,1.193,1.836,0.249
						c0.222-0.572-0.119-1.241-0.729-1.297c-0.243-0.022-0.488,0.15-0.607,0.348c0.145-0.078,0.29-0.156,0.435-0.234
						c0.312,0.312,0.623,0.623,0.935,0.935c0.134-2.25,0.573-4.448,0.902-6.674c0.222-1.499,0.522-3.114-0.187-4.512
						C368.632,267.227,368.107,267.386,368.115,267.741L368.115,267.741z"/>
				</g>
			</g>
			<g>
				<g>
					<path fill="#1C758A" d="M364.696,273.178c2.081,0.407,4.893,1.093,6.837-0.036c0.203-0.118,0.339-0.347,0.335-0.583
						c-0.02-1.161-1.784-0.438-2.41-0.386c-1.587,0.132-3.186-0.123-4.762,0.13C364.254,272.375,364.27,273.095,364.696,273.178
						L364.696,273.178z"/>
				</g>
			</g>
			<g>
				<g>
					<path fill="#1C758A" d="M373.78,273.64c-0.205,1.466-0.22,2.959-0.344,4.435c-0.033,0.399,0.351,0.698,0.713,0.712
						c0.111,0.005,0.222,0.009,0.333,0.014c0.307,0.013,0.636-0.229,0.7-0.533c0.26-1.222,0.517-2.443,0.976-3.608
						c0.179-0.453,0.44-1.033,0.878-1.289c0.326-0.191,1.008,0.923,1.126,1.086c0.563,0.778,1.795,0.105,1.309-0.765
						c-0.972-1.74-2.777-2.611-4.121-0.766c-1.021,1.402-1.379,3.464-1.594,5.148c0.242-0.242,0.484-0.484,0.727-0.727
						c-0.111,0.005-0.222,0.009-0.333,0.014c0.237,0.237,0.475,0.475,0.713,0.712c-0.124-1.476-0.139-2.968-0.344-4.435
						C374.467,273.272,373.832,273.272,373.78,273.64L373.78,273.64z"/>
				</g>
			</g>
			<g>
				<g>
					<path fill="#1C758A" d="M386.467,273.889c-0.629-0.825-1.259-1.367-2.317-1.459c-0.933-0.082-2.134,0.716-2.75,1.333
						c-0.99,0.99-1.729,2.57-0.856,3.863c0.713,1.056,2.069,1.348,3.255,1.149c1.466-0.246,2.235-1.65,2.166-3.033
						c-0.054-1.075-1.501-1.02-1.629,0c-0.138,1.099,0.329,1.999,1.28,2.555c0.738,0.432,2.117,0.668,2.767,0.01
						c0.131-0.133,0.119-0.33,0-0.464c-0.78-0.878-2.628-0.455-2.418-2.101c-0.543,0-1.086,0-1.629,0
						c0.064,1.346-1.165,1.866-2.254,1.162c-0.489-0.316-0.314-0.95-0.104-1.368c0.736-1.457,2.594-2.48,3.912-1.201
						C386.179,274.614,386.727,274.23,386.467,273.889L386.467,273.889z"/>
				</g>
			</g>
			<g>
				<g>
					<path fill="#1C758A" d="M388.455,273.642c-0.257,1.576-0.208,3.184-0.42,4.766c-0.094,0.696,0.904,1.007,1.334,0.552
						c1.354-1.432,2.189-3.406,3.857-4.517c-0.397-0.162-0.796-0.324-1.194-0.486c0.34,1.452,0.504,2.978,1.444,4.185
						c0.924,1.186,2.633,0.64,3.561-0.179c0.215-0.189,0.035-0.525-0.221-0.534c-1.104-0.035-2.059,0.114-2.52-1.078
						c-0.347-0.896-0.469-1.895-0.696-2.825c-0.119-0.487-0.765-0.779-1.194-0.486c-1.819,1.238-2.682,3.239-4.143,4.816
						c0.445,0.184,0.89,0.368,1.334,0.552c-0.212-1.582-0.163-3.19-0.42-4.766C389.119,273.282,388.514,273.282,388.455,273.642
						L388.455,273.642z"/>
				</g>
			</g>
			<g>
				<g>
					<path fill="#1C758A" d="M399.233,264.493c-1.247,1.501-1.084,3.887-1.134,5.722c-0.084,3.126-0.712,6.957,0.021,9.977
						c0.11,0.453,0.606,0.574,0.984,0.4c0.092-0.042,0.183-0.084,0.273-0.126c0.264-0.121,0.291-0.525,0.092-0.711
						c-0.039-0.037,0.156-2.493,0.156-2.546c-0.005-1.824-0.044-3.651-0.091-5.474c-0.059-2.301-0.489-4.669,0.286-6.899
						C399.935,264.51,399.458,264.223,399.233,264.493L399.233,264.493z"/>
				</g>
			</g>
			<g>
				<g>
					<path fill="#1C758A" d="M394.49,270.733c1.203,1.123,2.77,1.58,4.378,1.723c1.135,0.101,3.478,0.165,3.876-1.218
						c0.097-0.334-0.114-0.657-0.431-0.759c-0.883-0.286-2.124,0.33-3.062,0.355c-1.381,0.037-2.98-0.145-4.203-0.824
						C394.6,269.759,394.099,270.369,394.49,270.733L394.49,270.733z"/>
				</g>
			</g>
		</g>
		<g>
			<g>
				<path fill="#1C758A" d="M367.864,285.648c-0.375,2.743,0.376,5.507-0.853,8.113c-0.342,0.728,0.694,1.363,1.094,0.639
					c1.416-2.571,0.938-5.979,0.481-8.752C368.528,285.292,367.914,285.284,367.864,285.648L367.864,285.648z"/>
			</g>
		</g>
		<g>
			<g>
				<path fill="#1C758A" d="M371.494,287.181c-0.896,1.563-2.334,2.659-3.481,4.021c-0.337,0.399-0.275,0.913,0.156,1.212
					c1.706,1.183,2.84,2.726,5.057,2.875c1.124,0.075,1.125-1.691,0-1.75c-1.69-0.088-2.895-1.634-4.277-2.458
					c0.093,0.352,0.185,0.704,0.277,1.056c1.11-1.52,2.493-2.777,3.111-4.601C372.508,287.033,371.751,286.734,371.494,287.181
					L371.494,287.181z"/>
			</g>
		</g>
		<g>
			<g>
				<path fill="#1C758A" d="M375.396,289.653c-0.252,0.388-0.081,1.163-0.087,1.603c-0.014,1.11-0.173,2.226-0.446,3.3
					c-0.211,0.83,0.854,1.2,1.317,0.555c1.189-1.655,1.853-3.634,3.281-5.129c-0.448-0.118-0.896-0.237-1.345-0.355
					c0.55,1.847,0.375,3.78,0.644,5.673c0.049,0.347,0.467,0.623,0.798,0.607c0.224,0,0.446-0.02,0.667-0.059
					c0.362-0.048,0.619-0.205,0.741-0.564c0.05-0.147,0.05-0.262,0-0.409c-0.122-0.36-0.379-0.517-0.741-0.564
					c-0.221-0.039-0.443-0.058-0.667-0.059c0.266,0.203,0.532,0.405,0.798,0.607c-0.284-1.9-0.118-3.8-0.688-5.661
					c-0.172-0.561-0.917-0.81-1.345-0.355c-1.469,1.562-2.482,3.613-3.387,5.539c0.447,0.121,0.896,0.243,1.343,0.364
					c0.133-1.161,0.117-2.33,0.005-3.492c-0.046-0.471-0.082-1.555-0.676-1.689C375.522,289.547,375.444,289.58,375.396,289.653
					L375.396,289.653z"/>
			</g>
		</g>
		<g>
			<g>
				<path fill="#1C758A" d="M385.066,290.117c-1.345-0.647-2.3,1.324-2.615,2.305c-0.506,1.575,0.3,2.844,1.863,3.243
					c2.818,0.717,7.214-2.19,4.413-5.072c-0.795-0.818-4.199-1.906-4.517-0.084c-0.101,0.581,0.424,0.748,0.909,0.785
					c0.989,0.076,2.108-0.138,2.712,0.879c0.85,1.431-2.111,2.018-2.928,1.965c-0.693-0.045-1.119-0.414-1.104-1.098
					c0.012-0.498,0.432-2.239,1.092-2.282C385.206,290.737,385.397,290.276,385.066,290.117L385.066,290.117z"/>
			</g>
		</g>
		<g>
			<g>
				<path fill="#1C758A" d="M392.396,289.61c-0.348,1.847-1.075,3.761,0.87,5.039c1.723,1.131,2.938-0.456,3.368-2.031
					c-0.494,0-0.988,0-1.482,0c0.851,2.384,3.321,3.642,5.442,1.797c0.732-0.636,1.26-1.536,1.122-2.531
					c-0.152-1.1-1.229-1.988-2.332-1.77c-0.538,0.107-0.562,0.745-0.289,1.097c0.274,0.355,0.843,0.514,0.974,0.958
					c0.116,0.393-0.397,0.86-0.642,1.079c-1.148,1.031-2.334,0.162-2.793-1.039c-0.254-0.666-1.284-0.797-1.482,0
					c-0.275,1.104-0.785,1.829-1.59,0.664c-0.576-0.833-0.073-2.16-0.153-3.125C393.363,289.204,392.51,289.002,392.396,289.61
					L392.396,289.61z"/>
			</g>
		</g>
		<g>
			<g>
				<path fill="#1C758A" d="M402.974,290.375c-0.173,0.049,0.137,3.813,0.116,4.373c-0.025,0.675,0.911,1.099,1.371,0.568
					c1.352-1.561,2.428-3.339,3.707-4.958c-0.48-0.127-0.96-0.253-1.44-0.38c0.276,1.418,0.531,3.039,1.448,4.206
					c0.682,0.868,2.414,1.442,2.85,0.027c0.063-0.203-0.037-0.445-0.223-0.547c-0.274-0.151-0.497-0.162-0.798-0.234
					c-0.496-0.12-0.743-0.775-0.911-1.193c-0.349-0.865-0.519-1.807-0.704-2.716c-0.121-0.591-1.047-0.887-1.44-0.38
					c-1.31,1.688-2.52,3.458-3.75,5.204c0.499,0.135,0.998,0.27,1.496,0.405c-0.036-0.582-0.833-6.435-2.065-4.821
					C402.46,290.148,402.738,290.442,402.974,290.375L402.974,290.375z"/>
			</g>
		</g>
		<g>
			<g>
				<path fill="#1C758A" d="M370.789,306.583c-0.106,0.288-0.231,0.568-0.374,0.841c-0.318,0.645,0.547,1.141,0.955,0.559
					c0.76-1.082,0.8-2.336,0.862-3.613c0.014-0.29-0.215-0.581-0.494-0.648c-3.272-0.793-5.789,4.014-4.05,6.59
					c1.277,1.893,8.86,2.212,7.424-0.931c-0.141-0.309-0.604-0.405-0.876-0.229c-1.456,0.939-3.326,1.09-4.938,0.334
					c-0.846-0.396-0.518-1.811-0.306-2.481c0.315-0.998,1.222-2.155,2.388-1.985c-0.165-0.216-0.329-0.433-0.494-0.648
					c0.05,1.089,0.034,2.063-0.472,3.055c0.344,0.094,0.687,0.187,1.03,0.279c0.012-0.234,0.165-0.64,0.217-0.88
					C371.785,306.254,370.959,306.021,370.789,306.583L370.789,306.583z"/>
			</g>
		</g>
		<g>
			<g>
				<path fill="#1C758A" d="M379.816,305.888c-0.526-0.901-1.466-1.372-2.306-0.533c-0.729,0.727-1.046,2.065-0.937,3.06
					c0.203,1.849,1.958,3.303,3.807,2.682c1.501-0.504,2.662-1.979,2.808-3.547c0.191-2.068-2.294-3.116-4.004-2.606
					c-0.098,0.041-0.197,0.079-0.297,0.114c-0.567,0.208-0.682,1.11,0,1.266c0.638,0.146,1.582,0.207,2.064,0.426
					c0.105,0.047,0.202,0.108,0.298,0.173c-0.171-0.115,0.208,0.254,0.063,0.06c0.028,0.037,0.16,0.302,0.078,0.103
					c0.023,0.058,0.089,0.398,0.063,0.178c0.048,0.407-0.051,0.663-0.256,1.036c-0.21,0.381-0.57,0.763-0.888,0.976
					c-0.426,0.287-0.605,0.344-1.058,0.313c0.181,0.013-0.114-0.036-0.154-0.048c-0.091-0.033-0.099-0.035-0.022-0.006
					c-0.075-0.034-0.146-0.078-0.215-0.122c-0.144-0.091-0.351-0.35-0.486-0.574c-0.419-0.688-0.342-3.605,0.975-2.588
					C379.602,306.441,379.999,306.201,379.816,305.888L379.816,305.888z"/>
			</g>
		</g>
		<g>
			<g>
				<path fill="#1C758A" d="M385.221,305.463c0.302,1.759,0.347,3.463,0.263,5.24c-0.035,0.729,1.048,1.027,1.384,0.375
					c1.023-1.995,1.666-4.175,3.049-5.972c-0.46,0-0.921,0-1.381,0c0.859,1.895,0.742,4.207,2.476,5.629
					c0.809,0.664,1.948-0.41,1.17-1.17c-1.436-1.4-1.44-3.519-2.265-5.266c-0.283-0.601-1.06-0.432-1.381,0
					c-1.347,1.806-2.021,3.999-2.951,6.028c0.462,0.125,0.923,0.25,1.384,0.375c-0.092-1.867-0.138-3.858-1.104-5.512
					C385.65,304.828,385.156,305.085,385.221,305.463L385.221,305.463z"/>
			</g>
		</g>
		<g>
			<g>
				<path fill="#1C758A" d="M397.1,305.91c-0.075,0.267-0.154,0.518-0.182,0.793c-0.073,0.74,1.067,0.846,1.261,0.171
					c0.353-1.232,0.462-3.053-1.231-3.18c-1.347-0.102-2.602,1.33-3.052,2.445c-0.664,1.643,0.065,3.517,1.665,4.281
					c1.396,0.667,4.597,0.388,4.546-1.718c-0.01-0.412-0.458-0.685-0.823-0.473c-0.479,0.278-0.787,0.745-1.315,0.948
					c-0.538,0.207-1.114,0.147-1.651-0.021c-0.987-0.309-1.405-1.409-1.146-2.341c0.203-0.729,0.814-1.337,1.475-1.669
					c0.779-0.392,0.41,0.923,0.295,1.384c0.421,0.058,0.841,0.114,1.261,0.171c-0.027-0.275-0.106-0.526-0.182-0.793
					C397.89,305.455,397.229,305.455,397.1,305.91L397.1,305.91z"/>
			</g>
		</g>
		<g>
			<g>
				<path fill="#1C758A" d="M402.044,307.68c1.715,0.864,3.248-1.068,2.993-2.692c-0.147-0.938-1.146-1.345-1.982-1.341
					c-0.997,0.005-1.636,0.869-1.954,1.706c-0.708,1.856,0.138,4.344,2.019,5.083c0.906,0.356,2.08,0.313,3.012,0.101
					c0.797-0.182,1.694-1.197,0.815-1.886c-0.267-0.209-0.674-0.227-0.859,0.11c0.192-0.348,0.332-0.142-0.005-0.022
					c-0.198,0.069-0.359,0.147-0.565,0.195c-0.456,0.106-0.995,0.072-1.453-0.002c-1.027-0.165-1.484-1.063-1.582-2.037
					c-0.048-0.483,0.001-0.996,0.225-1.432c0.163-0.317,0.78-0.595,1.048-0.231c0.654,0.888-0.814,1.825-1.528,1.778
					C401.872,306.986,401.729,307.521,402.044,307.68L402.044,307.68z"/>
			</g>
		</g>
		<g>
			<g>
				<path fill="#1C758A" d="M407.693,305.17c-0.432,0.366-0.432,1.285-0.485,1.802c-0.118,1.129-0.19,2.263-0.228,3.397
					c-0.028,0.864,0.983,1.114,1.557,0.645c1.808-1.479,2.135-3.965,3.696-5.637c-0.542-0.225-1.084-0.449-1.627-0.674
					c-0.01,1.747-0.089,3.512,0.305,5.229c0.335,1.459,1.912,3.022,3.114,1.378c0.205-0.282-0.009-0.714-0.322-0.792
					c-1.803-0.453-1.195-4.435-1.19-5.814c0.002-0.81-1.054-1.29-1.627-0.674c-1.561,1.68-1.973,4.137-3.638,5.695
					c0.519,0.215,1.037,0.43,1.557,0.645c-0.034-1.03-0.115-2.052-0.201-3.078c-0.048-0.582-0.021-1.706-0.512-2.121
					C407.967,305.064,407.818,305.064,407.693,305.17L407.693,305.17z"/>
			</g>
		</g>
		<g>
			<g>
				<path fill="#1C758A" d="M416.51,299.037c-0.256,2.096-0.337,4.223-0.403,6.333c-0.074,2.334,0.64,4.352,0.935,6.626
					c0.069,0.536,0.359,0.821,0.894,0.894c0.032,0.004,0.065,0.009,0.099,0.013c0.642,0.086,0.913-0.718,0.68-1.184
					c-0.039-0.077-0.078-0.154-0.116-0.231c-0.088-0.176-0.306-0.239-0.485-0.197c-0.096,0.022-0.191,0.044-0.287,0.066
					c0.332,0.253,0.664,0.506,0.996,0.759c0.123-1.951-0.891-3.927-1.094-5.889c-0.247-2.387-0.159-4.802-0.451-7.189
					C417.215,298.544,416.57,298.544,416.51,299.037L416.51,299.037z"/>
			</g>
		</g>
		<g>
			<g>
				<path fill="#1C758A" d="M413.427,306.186c2.449,0.396,5.981,1.22,7.998-0.617c0.187-0.171,0.036-0.477-0.199-0.48
					c-1.281-0.02-2.548,0.134-3.833,0.105c-1.267-0.027-2.574-0.151-3.833,0.01C413.055,305.268,412.818,306.087,413.427,306.186
					L413.427,306.186z"/>
			</g>
		</g>
		<g>
			<g>
				<path fill="#1C758A" d="M422.176,306.932c-0.2,1.348-0.038,2.665,0.304,3.978c0.195,0.748,1.287,0.729,1.492,0
					c0.392-1.393,0.403-3.056,1.195-4.3c0.346-0.543,1.029,0.004,1.462,0.145c0.876,0.285,1.28-0.554,0.692-1.189
					c-1.086-1.173-2.802-0.963-3.617,0.355c-0.826,1.336-0.828,3.095-1.225,4.577c0.497,0,0.995,0,1.492,0
					c-0.451-1.161-0.795-2.343-1.028-3.565C422.872,306.557,422.233,306.542,422.176,306.932L422.176,306.932z"/>
			</g>
		</g>
		<g>
			<g>
				<path fill="#1C758A" d="M431.888,306.703c0.028-1.459-1.062-2.172-2.502-1.825c-1.455,0.351-2.555,2.013-2.496,3.455
					c0.06,1.479,1.277,2.599,2.626,2.976c1.611,0.45,3.072-0.459,3.97-1.73c-0.617,0-1.234,0-1.852,0
					c0.646,1.437,2.926,2.083,3.922,0.652c0.123-0.176,0.029-0.42-0.137-0.523c-0.575-0.362-1.539-0.247-1.825-0.955
					c-0.366-0.906-1.371-1.025-1.96-0.256c-0.55,0.718-1.924,1.023-2.352-0.031c-0.386-0.949,1.294-2.688,1.994-1.596
					C431.451,307.143,431.881,307.036,431.888,306.703L431.888,306.703z"/>
			</g>
		</g>
		<g>
			<g>
				<path fill="#1C758A" d="M436.122,299.703c-0.375,3.234-0.232,7.488,0.941,10.563c0.331,0.867,1.699,0.799,1.689-0.229
					c-0.003-0.289-0.133-0.572-0.166-0.768c-0.034-0.205-0.278-0.309-0.461-0.262c-0.258,0.064-0.429,0.182-0.668,0.286
					c0.422,0.172,0.843,0.343,1.264,0.515c-0.399-1.724-0.756-3.414-0.982-5.172c-0.216-1.671-0.256-3.438-0.758-5.05
					C436.826,299.088,436.177,299.228,436.122,299.703L436.122,299.703z"/>
			</g>
		</g>
		<g>
			<g>
				<path fill="#1C758A" d="M434.998,304.319c-0.181-0.052-0.193,0.099-0.037,0.451c-0.184,0.049-0.368,0.098-0.553,0.146
					c0.948,0.353,2,0.428,3.001,0.525c0.904,0.088,2.1,0.269,2.804-0.419c0.176-0.171,0.175-0.47,0-0.641
					c-0.651-0.636-1.593-0.469-2.438-0.49c-1.07-0.026-2.146-0.081-3.216-0.092c-0.258-0.002-0.474,0.177-0.548,0.417
					c-0.194,0.638,0.288,0.961,0.881,0.884C435.299,305.049,435.48,304.414,434.998,304.319L434.998,304.319z"/>
			</g>
		</g>
		<g>
			<g>
				<path fill="#1C758A" d="M441.128,307.392c-0.042-0.03-0.084-0.06-0.125-0.089c0.02-0.152,0.039-0.305,0.059-0.457
					c-0.296,0.367-0.268,0.863-0.276,1.316c-0.011,0.627-0.077,1.248-0.077,1.875c0,0.589,0.54,0.921,1.078,0.821
					c0.047-0.009,0.095-0.018,0.142-0.026c0.288-0.054,0.517-0.327,0.595-0.595c0.082-0.278,0.131-0.576,0.133-0.868
					c0.002-0.302-0.274-0.459-0.544-0.414c-0.186,0.03-0.3,0.078-0.464,0.169c-0.193,0.128-0.175,0.14,0.054,0.035
					c-0.123,0.013-0.246,0.032-0.368,0.057c0.359,0.273,0.719,0.548,1.078,0.821c0-0.771-0.054-1.589-0.243-2.339
					c-0.073-0.29-0.188-0.709-0.478-0.862c-0.056-0.032-0.113-0.059-0.174-0.08c-0.193-0.036-0.179-0.02,0.044,0.052
					c-0.057-0.063-0.155-0.112-0.237-0.125C440.864,306.611,440.667,307.245,441.128,307.392L441.128,307.392z"/>
			</g>
		</g>
		<g>
			<g>
				<path fill="#1C758A" d="M442.981,301.703c0.013-0.111,0.025-0.222,0.038-0.333c0.086-0.767-1.056-0.993-1.401-0.379
					c-0.159,0.282-0.2,0.568-0.176,0.887c0.074,1.016,1.474,1.002,1.567,0c0.017-0.176,0-0.421,0.01-0.508
					c-0.251,0.25-0.502,0.501-0.752,0.752c0.098,0.001,0.194,0.002,0.292,0.003C442.809,302.127,442.956,301.929,442.981,301.703
					L442.981,301.703z"/>
			</g>
		</g>
		<g>
			<g>
				<path fill="#1C758A" d="M446.446,306.325c-1.886-0.999-3.652,1.212-2.761,2.97c0.777,1.533,2.825,2.297,4.443,1.92
					c1.328-0.309,2.469-1.485,2.514-2.876c0.055-1.73-2.161-3.106-3.719-2.519c-0.366,0.139-0.649,0.689-0.262,0.993
					c0.474,0.372,1.054,0.549,1.579,0.838c0.191,0.105,0.292,0.183,0.43,0.319c0.108,0.108,0.104,0.108,0.153,0.286
					c-0.008-0.028-0.013,0.267,0.006,0.167c-0.049,0.263-0.03,0.177-0.173,0.408c-0.128,0.206-0.402,0.417-0.739,0.583
					c-0.667,0.329-1.557,0.061-2.25-0.468c-0.359-0.274-0.624-0.605-0.511-1.084c0.129-0.545,0.724-0.633,1.185-0.738
					C446.707,307.042,446.776,306.5,446.446,306.325L446.446,306.325z"/>
			</g>
		</g>
		<g>
			<g>
				<path fill="#1C758A" d="M453.176,306.264c-0.27,1.451-0.278,2.968-0.382,4.439c-0.031,0.438,0.373,0.738,0.766,0.766
					c0.919,0.065,1.475-0.726,2.04-1.355c0.963-1.07,1.779-2.41,3.178-2.953c-0.346-0.264-0.692-0.527-1.038-0.791
					c-0.007,1.484,0.412,3.386,1.408,4.533c0.938,1.082,3.041,0.698,2.567-1c-0.08-0.29-0.351-0.397-0.624-0.354
					c-0.231,0.035-0.718,0.035-0.499,0.221c-0.267-0.226-0.43-0.675-0.557-0.985c-0.306-0.749-0.591-1.604-0.655-2.414
					c-0.038-0.476-0.506-1.006-1.038-0.791c-1.024,0.414-1.795,1.02-2.539,1.834c-0.441,0.483-1.58,2.479-2.243,2.525
					c0.255,0.255,0.511,0.511,0.766,0.766c-0.104-1.472-0.112-2.988-0.382-4.439C453.873,305.882,453.246,305.882,453.176,306.264
					L453.176,306.264z"/>
			</g>
		</g>
		<g>
			<g>
				<path fill="#1C758A" d="M366.122,323.463c1.207-0.11,2.386-0.27,3.48,0.391c1.045,0.631-0.919,0.913-1.414,1.017
					c-1.083,0.226-0.821,1.596,0,1.936c0.669,0.277,1.356,0.607,1.889,1.108c0.082,0.077,0.252,0.308,0.25,0.303
					c0.044,0.115,0.017,0.121,0.036,0.08c-0.239,0.507-1.332,0.744-2.081,0.737c-1.1-0.012-1.796-0.654-2.472-1.44
					c-0.401-0.469-1.175-0.468-1.362,0.213c-0.18,0.654,0.198,1.388,0.585,1.882c1.375,1.757,4.517,1.804,6.241,0.573
					c0.86-0.613,1.401-1.648,0.999-2.698c-0.561-1.464-2.198-2.162-3.552-2.693c0,0.646,0,1.29,0,1.936
					c1.555-0.354,4.193-1.761,2.698-3.7c-1.221-1.582-3.974-1.833-5.613-0.808C365.316,322.604,365.469,323.522,366.122,323.463
					L366.122,323.463z"/>
			</g>
		</g>
		<g>
			<g>
				<path fill="#1C758A" d="M367.358,316.386c-0.248,0.812-0.239,1.747-0.228,2.589c0.004,0.294,0.198,0.553,0.482,0.633
					c0.122,0.035,0.228,0.035,0.35,0c0.284-0.08,0.479-0.339,0.482-0.633c0.012-0.842,0.021-1.777-0.228-2.589
					C368.087,315.961,367.489,315.961,367.358,316.386L367.358,316.386z"/>
			</g>
		</g>
		<g>
			<g>
				<path fill="#1C758A" d="M368.973,317.037c-0.149,0.832-0.574,2.469,0.452,2.917c0.431,0.188,0.871-0.032,0.907-0.521
					c0.056-0.729-0.259-1.641-0.395-2.396C369.851,316.558,369.059,316.558,368.973,317.037L368.973,317.037z"/>
			</g>
		</g>
		<g>
			<g>
				<path fill="#1C758A" d="M367.234,333.354c-0.6,0.472-0.719,1.458-0.52,2.152c0.354,1.242,2.33,0.693,1.929-0.531
					c-0.151-0.461-0.325-0.905-0.46-1.37C368.055,333.158,367.562,333.096,367.234,333.354L367.234,333.354z"/>
			</g>
		</g>
		<g>
			<g>
				<path fill="#1C758A" d="M368.455,333.84c0.189,0.01,0.371,0.012,0.555,0.071c-0.084-0.207-0.168-0.413-0.252-0.62
					c-0.25,0.336-0.244,0.902-0.288,1.307c-0.046,0.426-0.002,0.873,0.122,1.283c0.123,0.409,0.425,0.771,0.809,0.961
					c0.509,0.252,0.94,0.143,1.355-0.213c0.292-0.25,0.208-0.783-0.123-0.956c-0.421-0.22-0.518-0.183-0.67-0.64
					c-0.175-0.524-0.147-1.3-0.477-1.742c-0.11-0.148-0.283-0.257-0.477-0.194c-0.184,0.06-0.365,0.062-0.555,0.071
					C368.022,333.191,368.022,333.816,368.455,333.84L368.455,333.84z"/>
			</g>
		</g>
		<g>
			<g>
				<path fill="#1C758A" d="M383.678,322.96c0.602,1.989,0.481,4.158,1.088,6.16c0.144,0.473,0.538,0.75,1.022,0.778
					c1.563,0.09,2.288-1.928,2.795-3.127c0.718-1.696,1.205-3.51,1.639-5.299c0.349-1.434-1.755-2.005-2.199-0.605
					c-0.83,2.608-1.327,5.088-2.833,7.426c0.312-0.179,0.622-0.356,0.933-0.535c-0.111,0.007-0.223,0.014-0.334,0.02
					c0.306,0.175,0.61,0.351,0.916,0.525c-0.704-1.622-0.663-4.888-2.35-5.863C384.012,322.241,383.559,322.567,383.678,322.96
					L383.678,322.96z"/>
			</g>
		</g>
		<g>
			<g>
				<path fill="#1C758A" d="M392.455,324.377c-1.913,0.058-2.665,2.329-1.92,3.837c0.914,1.851,3.721,1.914,5.284,0.961
					c1.514-0.923,1.444-2.901,0.397-4.145c-0.542-0.645-1.297-1.058-2.13-1.16c-0.887-0.11-2.09,0.198-2.22,1.138
					c-0.036,0.266,0.017,0.55,0.28,0.688c0.826,0.434,1.661-0.081,2.454,0.458c0.489,0.334,0.662,0.992,0.373,1.319
					c-0.625,0.705-2.2,0.655-2.819,0.002c-0.753-0.796,0.109-1.735,0.626-2.312C393.037,324.878,392.878,324.364,392.455,324.377
					L392.455,324.377z"/>
			</g>
		</g>
		<g>
			<g>
				<path fill="#1C758A" d="M399.738,317.064c-1.215,3.933-1.602,9.438-0.149,13.345c0.167,0.45,0.605,0.776,1.105,0.627
					c0.249-0.074,0.42-0.178,0.622-0.339c0.188-0.149,0.275-0.504,0.191-0.726c-0.123-0.326-0.184-0.533-0.405-0.782
					c-0.154-0.174-0.475-0.174-0.629,0c-0.222,0.249-0.282,0.456-0.405,0.782c0.416-0.11,0.832-0.22,1.248-0.329
					c-0.202-0.161-0.373-0.265-0.622-0.339c0.22,0.289,0.439,0.577,0.659,0.866c-0.591-4.42-0.853-8.54-0.833-13
					C400.522,316.712,399.869,316.639,399.738,317.064L399.738,317.064z"/>
			</g>
		</g>
		<g>
			<g>
				<path fill="#1C758A" d="M403.378,323.93c-1.119,1.729-1.767,5.498,0.941,6.195c2.8,0.721,4.365-3.053,4.145-5.287
					c-0.125-1.269-2.017-1.323-2.016,0c0.001,1.441,0.059,2.88,0.635,4.221c0.604,1.404,2.568,1.902,3.587,0.658
					c0.426-0.521,0.165-1.286-0.547-1.32c-1.025-0.05-1.217,0.12-1.485-1.002c-0.197-0.826-0.173-1.713-0.174-2.557
					c-0.672,0-1.344,0-2.016,0c0.06,0.607-0.423,3.897-1.593,3.38c-1.058-0.47-0.816-3.002-0.606-3.921
					C404.37,323.765,403.674,323.472,403.378,323.93L403.378,323.93z"/>
			</g>
		</g>
		<g>
			<g>
				<path fill="#1C758A" d="M412.815,325.255c0.199,1.458-0.053,2.801-0.194,4.249c-0.072,0.741,0.954,1.088,1.427,0.591
					c1.179-1.237,1.391-3.178,2.851-4.17c-0.438-0.252-0.877-0.503-1.315-0.755c-0.007,0.84-0.001,1.639-0.313,2.433
					c-0.202,0.511,0.315,1.173,0.854,1.122c1.76-0.165,2.797-1.383,3.974-2.58c-0.516-0.214-1.031-0.427-1.547-0.641
					c-0.004,1.383-0.017,4.965,2.233,4.475c0.733-0.159,0.739-1.119,0.194-1.484c-0.784-0.526-0.61-2.153-0.615-2.99
					c-0.005-0.777-0.991-1.216-1.547-0.641c-0.731,0.758-1.559,1.972-2.692,2.088c0.285,0.374,0.57,0.748,0.854,1.122
					c0.358-0.931,0.354-1.917,0.353-2.903c-0.001-0.623-0.757-1.142-1.315-0.755c-1.682,1.165-1.929,3.007-3.149,4.498
					c0.476,0.196,0.951,0.394,1.427,0.591c-0.084-1.4,0.221-3.529-0.942-4.561C413.094,324.716,412.772,324.944,412.815,325.255
					L412.815,325.255z"/>
			</g>
		</g>
		<g>
			<g>
				<path fill="#1C758A" d="M425.792,327.957c1.529-0.175,1.852-2.182,0.835-3.167c-1.581-1.532-3.803,1.366-3.943,2.803
					c-0.178,1.82,1.548,3.026,3.108,3.434c0.755,0.197,1.611,0.235,2.362,0.007c0.734-0.224,1.734-0.985,1.381-1.875
					c-0.21-0.531-0.687-0.723-1.209-0.492c-0.324,0.144-0.457,0.417-0.695,0.54c-0.235,0.122-0.709,0.109-1.022,0.091
					c-0.721-0.042-1.626-0.379-2.05-0.991c-0.591-0.854,0.319-2.139,1.049-2.572c0.415-0.247,0.56,1.117-0.044,1.379
					C425.157,327.289,425.354,328.007,425.792,327.957L425.792,327.957z"/>
			</g>
		</g>
		<g>
			<g>
				<path fill="#1C758A" d="M406.318,275.076c0.001,0,0.002-0.001,0.004-0.001c-0.182,0.138-0.362,0.275-0.543,0.413
					c1.076,0.438,2.383,0.59,3.523,0.814c1.091,0.214,2.12,0.237,3.149-0.205c1.078-0.463,0.298-2.153-0.782-1.855
					c-1.842,0.509-4.386-0.702-5.992,0.463c-0.178,0.129-0.296,0.38-0.154,0.586c0.19,0.276,0.353,0.44,0.703,0.46
					C406.615,275.774,406.694,275.163,406.318,275.076L406.318,275.076z"/>
			</g>
		</g>
	</g>
	<g>
		<g>
			<g>
				<path fill="#333333" d="M384.813,454.676c0.074-2.532-1.399-5.784-4.432-4.738c-2.754,0.951-4.24,6.24-4.881,8.727
					c-0.75,2.915,0.405,6.328,3.768,6.763c2.164,0.279,6.8-0.284,6.234-3.413c-0.107-0.595-0.862-0.536-1.147-0.149
					c-1.243,1.681-2.626,2.065-4.681,1.946c-3.265-0.189-2.906-3.729-2.303-5.881c0.454-1.619,1.181-3.25,1.92-4.758
					c0.591-1.203,1.563-2.532,3.076-1.893c1.157,0.49,1.407,2.424,1.557,3.518C383.996,455.318,384.798,455.165,384.813,454.676
					L384.813,454.676z"/>
			</g>
		</g>
		<g>
			<g>
				<path fill="#333333" d="M392.06,459.574c-1.585-1.899-3.481,1.322-3.655,2.695c-0.331,2.598,2.156,3.563,4.361,3.197
					c2.144-0.355,4.271-1.902,3.635-4.313c-0.479-1.815-4.584-4.034-5.896-2.09c-0.129,0.191,0.01,0.42,0.198,0.489
					c1.395,0.513,3.23,0.321,4.189,1.722c0.894,1.306-0.76,2.369-1.791,2.693c-1.044,0.33-3.024,0.431-3.372-0.905
					c-0.278-1.073,0.671-3.548,2.062-3.028C392.075,460.143,392.219,459.764,392.06,459.574L392.06,459.574z"/>
			</g>
		</g>
		<g>
			<g>
				<path fill="#333333" d="M398.887,459.5c0.052,1.721-0.025,3.371-0.121,5.094c-0.043,0.79,1.12,0.753,1.207,0
					c0.243-2.115,1.048-4.403,2.958-5.574c-0.344-0.197-0.687-0.395-1.03-0.591c-0.045,1.638-0.159,3.29,0.229,4.899
					c0.139,0.575,0.46,1.305,1.075,1.496c0.538,0.167,1.224-0.07,1.347-0.668c0.032-0.155-0.016-0.344-0.17-0.419
					c-1.549-0.757-1.085-3.804-1.111-5.309c-0.009-0.501-0.581-0.876-1.03-0.591c-2.103,1.336-3.622,4.252-3.474,6.756
					c0.402,0,0.805,0,1.207,0c-0.054-1.461,0.398-4.09-0.721-5.244C399.124,459.218,398.882,459.314,398.887,459.5L398.887,459.5z"
					/>
			</g>
		</g>
		<g>
			<g>
				<path fill="#333333" d="M405.463,459.676c-0.128,0.809-0.572,5.611,1.151,5.137c0.837-0.23,0.245-1.438,0.14-1.965
					c-0.21-1.057-0.429-2.111-0.613-3.172C406.083,459.341,405.516,459.336,405.463,459.676L405.463,459.676z"/>
			</g>
		</g>
		<g>
			<g>
				<path fill="#333333" d="M406.171,455.646c-0.025-0.008-0.052-0.015-0.078-0.022c0.091,0.091,0.182,0.181,0.272,0.271
					c-0.008-0.056-0.016-0.112-0.023-0.169c-0.078-0.58-0.938-0.488-1.079,0c-0.38,1.308,1.672,1.32,1.41,0.266
					c-0.068-0.274-0.323-0.44-0.594-0.453c-0.166-0.015-0.147-0.002,0.055,0.04c0.094,0.122,0.188,0.245,0.282,0.368
					c-0.033-0.07-0.058-0.145-0.074-0.221c-0.13,0.229-0.261,0.459-0.391,0.688c0.005-0.01,0.011-0.019,0.017-0.028
					C406.444,456.457,406.657,455.791,406.171,455.646L406.171,455.646z"/>
			</g>
		</g>
		<g>
			<g>
				<path fill="#333333" d="M411.683,460.037c-0.035,0.326-0.154,0.619-0.201,0.938c-0.077,0.533,0.607,0.912,0.916,0.387
					c0.639-1.088,0.6-3.406-1.204-3.172c-1.573,0.205-2.388,2.158-2.361,3.547c0.025,1.334,0.705,2.646,1.813,3.386
					c0.923,0.616,3.233,0.45,3.125-1.065c-0.021-0.279-0.199-0.429-0.465-0.465c-0.586-0.078-1.051,0.458-1.646,0.303
					c-0.54-0.141-0.915-0.795-1.109-1.268c-0.263-0.641-0.299-1.32-0.096-1.979c0.134-0.436,0.527-0.855,0.892-1.102
					c0.45-0.307,0.175,1.297,0.135,1.428c0.322,0,0.645,0,0.967,0c-0.047-0.318-0.166-0.611-0.201-0.938
					C412.209,459.673,411.721,459.673,411.683,460.037L411.683,460.037z"/>
			</g>
		</g>
		<g>
			<g>
				<path fill="#333333" d="M417.862,460.537c0.541,0.049,0.694-0.441,0.816-0.885c0.088-0.318-0.106-0.595-0.397-0.701
					c-2.592-0.947-4.051,3.364-3.247,5.23c0.351,0.814,1.121,1.428,2.039,1.281c1.181-0.188,1.657-1.512,1.836-2.531
					c-0.529-0.072-1.059-0.143-1.587-0.215c0.075,1.055,0.728,1.948,1.733,2.316c0.82,0.301,2.328,0.115,2.242-1.061
					c-0.029-0.395-0.347-0.637-0.734-0.56c-0.36,0.071-0.517,0.249-0.899,0.143c-0.34-0.095-0.696-0.487-0.727-0.839
					c-0.072-0.845-1.433-1.174-1.587-0.215c-0.077,0.484-0.503,2.164-0.948,0.924c-0.407-1.137,0.419-3.292,1.728-3.355
					c-0.183-0.14-0.366-0.279-0.549-0.418c0.009,0.033,0.079,0.506,0.164,0.451C417.542,460.235,417.635,460.517,417.862,460.537
					L417.862,460.537z"/>
			</g>
		</g>
		<g>
			<g>
				<path fill="#333333" d="M422.402,453.951c0.719,1.975-0.001,4.297,0.177,6.354c0.108,1.252,0.275,4.279,1.475,4.969
					c0.213,0.121,0.539,0.063,0.653-0.172c0.716-1.471-0.803-4.064-0.946-5.658c-0.17-1.889,0.184-4.012-0.819-5.721
					C422.776,453.441,422.285,453.629,422.402,453.951L422.402,453.951z"/>
			</g>
		</g>
		<g>
			<g>
				<path fill="#333333" d="M436.664,456.905c0.204-0.681,3.832-0.821,4.349-0.874c0.884-0.09,2.935,0.129,3.596-0.605
					c0.113-0.125,0.117-0.302,0-0.427c-0.92-0.984-4.018-0.081-5.158,0.106c-0.966,0.158-3.294,0.389-3.415,1.715
					C436.001,457.191,436.564,457.24,436.664,456.905L436.664,456.905z"/>
			</g>
		</g>
		<g>
			<g>
				<path fill="#333333" d="M436.224,456.442c-0.591,2.425-0.872,5.425-0.106,7.828c0.231,0.724,1.356,0.806,1.547,0
					c0.034-0.146,0.068-0.292,0.104-0.438c0.068-0.292-0.041-0.598-0.306-0.752c-0.472-0.275-0.78,0.08-1.139,0.41
					c0.447,0.117,0.894,0.236,1.341,0.354c-0.827-2.428-0.115-4.955-0.642-7.401C436.936,456.039,436.318,456.053,436.224,456.442
					L436.224,456.442z"/>
			</g>
		</g>
		<g>
			<g>
				<path fill="#333333" d="M435.433,460.467c1.308,0.308,3.011,0.324,4.319,0.021c0.224-0.052,0.436-0.26,0.484-0.484
					c0.047-0.211,0.052-0.351-0.069-0.535c-0.128-0.193-0.352-0.364-0.6-0.344c-0.675,0.057-1.347,0.173-2.02,0.25
					c-0.702,0.082-1.428,0.069-2.115,0.231C435.006,459.707,435.005,460.366,435.433,460.467L435.433,460.467z"/>
			</g>
		</g>
		<g>
			<g>
				<path fill="#333333" d="M442.716,457.531c-0.526,2.463-1.103,5.387-0.1,7.793c0.249,0.598,1.249,0.791,1.414,0
					c0.063-0.301,0.125-0.601,0.187-0.9c0.055-0.268-0.17-0.541-0.456-0.457c-0.615,0.184-0.72,0.262-1.07,0.792
					c0.446,0.059,0.894,0.116,1.34,0.175c-0.906-2.471-0.208-4.896-0.637-7.402C443.335,457.187,442.786,457.201,442.716,457.531
					L442.716,457.531z"/>
			</g>
		</g>
		<g>
			<g>
				<path fill="#333333" d="M449.745,460.841c-0.127-1.253-1.193-1.698-2.33-1.319c-1.14,0.379-1.802,2.092-1.92,3.18
					c-0.118,1.098,0.848,2.125,1.992,1.801c1.265-0.36,2.188-1.405,3.082-2.311c-0.404-0.313-0.809-0.624-1.213-0.937
					c-0.596,1.065-0.914,2.558,0.277,3.368c0.93,0.633,2.67,0.744,3.159-0.467c0.059-0.146-0.036-0.35-0.17-0.419
					c-1.01-0.521-3.025,0.253-1.933-1.702c0.426-0.762-0.588-1.57-1.213-0.937c-0.688,0.695-1.431,1.64-2.396,1.934
					c-0.275,0.083,0.323-1.485,0.36-1.562c0.325-0.68,1.155-1.508,1.822-0.5C449.394,461.165,449.772,461.115,449.745,460.841
					L449.745,460.841z"/>
			</g>
		</g>
		<g>
			<g>
				<path fill="#333333" d="M456.972,460.236c-0.442-1.44-3.622-1.963-3.372,0.025c0.166,1.32,1.6,2.234,2.472,3.105
					c0.245,0.246,0.503,0.523,0.634,0.85c0.172,0.426-0.66,0.568-0.918,0.662c-0.76,0.276-1.766-1.125-2.29-1.529
					c-0.361-0.278-0.875,0.18-0.747,0.574c0.433,1.346,1.968,2.381,3.371,2.166c1.187-0.182,2.292-1.299,1.634-2.502
					c-0.674-1.229-1.997-1.888-2.811-3.002c-0.75-1.027,1.201-0.672,1.557-0.151C456.659,460.666,457.063,460.529,456.972,460.236
					L456.972,460.236z"/>
			</g>
		</g>
		<g>
			<g>
				<path fill="#333333" d="M459.076,456.553c-0.168,1.907-0.154,3.78,0.199,5.664c0.124,0.66,0.22,2.322,1.152,2.363
					c0.296,0.014,0.475-0.24,0.503-0.503c0.019-0.172-0.079-0.321-0.178-0.45c-0.117-0.153-0.352-0.234-0.503-0.064
					c-0.12,0.111-0.105,0.121,0.044,0.029c0.206,0.117,0.412,0.234,0.619,0.352c-0.715-2.252-0.964-4.946-1.183-7.391
					C459.692,456.133,459.113,456.132,459.076,456.553L459.076,456.553z"/>
			</g>
		</g>
		<g>
			<g>
				<path fill="#333333" d="M462.353,458.72c-0.775,0.017-1.608,1.751-1.897,2.309c-0.503,0.968-0.595,1.94,0.332,2.651
					c1.027,0.788,2.456,1.087,3.71,1.25c0.785,0.104,2.756,0.048,2.329-1.266c-0.06-0.186-0.242-0.367-0.454-0.346
					c-1.584,0.162-3.101,0.188-4.618-0.59c-1.548-0.793,0.926-2.688,0.844-3.764C462.588,458.834,462.494,458.717,462.353,458.72
					L462.353,458.72z"/>
			</g>
		</g>
	</g>
	<g>
		<g>
			<g>
				<path fill="#644172" d="M70.174,395.731c-1.127,0.75-1.778,1.678-2.414,2.861c-1.04,1.937-2.58,3.512-3.714,5.381
					c0.437,0.184,0.873,0.368,1.31,0.552c1.033-2.733,2.596-5.225,3.843-7.858c1.511-3.19,2.604,1.563,2.974,2.746
					c0.576,1.842,2.413,6.456,4.956,4.052c0.394-0.372,0.115-1.172-0.464-1.12c-3.349,0.3-2.695-6.672-5.142-8.18
					c-1.561-0.962-2.609-0.302-3.424,1.193c-1.528,2.803-3.079,5.767-4.125,8.786c-0.268,0.773,0.926,1.26,1.31,0.552
					c0.848-1.563,1.886-3.045,2.819-4.56c0.852-1.384,1.097-2.855,2.45-3.915C70.833,396.002,70.467,395.536,70.174,395.731
					L70.174,395.731z"/>
			</g>
		</g>
		<g>
			<g>
				<path fill="#644172" d="M68.087,400.677c-0.008-0.001-0.016-0.003-0.023-0.004c-0.429-0.078-0.612,0.577-0.181,0.656
					c0.138,0.025,0.063,0.055,0-0.076c0.074,0.155,0.244,0.217,0.398,0.25c0.374,0.08,0.752,0.112,1.131,0.152
					c0.88,0.092,1.8,0.353,2.547-0.257c0.221-0.181,0.221-0.614,0-0.795c-0.71-0.579-1.542-0.363-2.382-0.273
					c-0.394,0.042-0.798,0.062-1.186,0.145c-0.156,0.034-0.311,0.055-0.43,0.174c-0.228,0.228,0.158-0.019-0.079,0.024
					c-0.431,0.079-0.248,0.734,0.181,0.656c0.007-0.001,0.015-0.003,0.023-0.004C68.409,401.267,68.409,400.735,68.087,400.677
					L68.087,400.677z"/>
			</g>
		</g>
		<g>
			<g>
				<path fill="#644172" d="M78.755,398.758c-1.352,1.062-0.914,4.083-0.993,5.577c-0.059,1.099,1.421,1.117,1.774,0.24
					c0.782-1.944,1.784-3.688,2.949-5.428c-0.497,0.063-0.994,0.128-1.491,0.192c1.492,1.346,0.975,3.798,2.341,5.324
					c0.809,0.903,2.123-0.425,1.326-1.326c-0.626-0.707-0.69-1.797-0.884-2.683c-0.224-1.02-0.651-1.959-1.441-2.659
					c-0.473-0.419-1.143-0.339-1.491,0.192c-1.211,1.846-2.424,3.771-3.051,5.906c0.591,0.08,1.183,0.16,1.774,0.24
					c-0.065-0.876-0.179-1.747-0.25-2.622c-0.074-0.91,0.096-1.827,0.023-2.712C79.316,398.685,78.995,398.569,78.755,398.758
					L78.755,398.758z"/>
			</g>
		</g>
		<g>
			<g>
				<path fill="#644172" d="M91.295,399.494c-0.847-1.704-2.596-0.963-3.799-0.046c-1.152,0.879-1.698,2.593-1.383,4.01
					c0.321,1.44,1.91,2.51,3.353,1.906c1.433-0.6,2.011-2.284,2.658-3.566c-0.559-0.235-1.117-0.471-1.676-0.707
					c-0.295,1.82,0.521,4.289,2.822,3.69c0.586-0.153,1.125-0.988,0.594-1.471c-0.324-0.295-0.732-0.205-1.128-0.262
					c-0.673-0.096-0.544-1.277-0.486-1.714c0.12-0.901-1.335-1.26-1.708-0.463c-0.251,0.535-1.954,4.457-2.723,2.366
					c-0.255-0.692,0.043-1.589,0.347-2.217c0.346-0.718,1.938-1.951,2.59-1.11C91.007,400.236,91.458,399.823,91.295,399.494
					L91.295,399.494z"/>
			</g>
		</g>
		<g>
			<g>
				<path fill="#644172" d="M95.661,390.471c-2.029,4.071-0.497,9.499,0.115,13.775c0.157,1.095,1.731,0.718,1.811-0.245
					c0.369-4.462-2.461-8.74-1.212-13.229C96.491,390.353,95.862,390.067,95.661,390.471L95.661,390.471z"/>
			</g>
		</g>
		<g>
			<g>
				<path fill="#644172" d="M99.907,399.087c-0.888,1.692-2.291,6.338,1.183,6.35c2.9,0.01,4.197-4.01,3.49-6.354
					c-0.302-1-1.917-0.847-1.864,0.252c0.16,3.272,3.119,5.441,5.041,7.784c1.171,1.428,2.327,5.261-0.856,4.223
					c-1.832-0.598-2.982-2.177-4.056-3.641c-0.335-0.457-1.097-0.331-1.106,0.3c-0.044,3.08,6.177,7.645,8.516,4.347
					c3.638-5.129-5.313-8.585-5.641-13.013c-0.589,0.159-1.179,0.319-1.768,0.479c0.561,1.187-0.214,2.84-1.038,3.694
					c-1.581,1.641-1.387-1.985-1.339-2.321c0.082-0.58,0.247-1.143,0.338-1.721C100.888,398.951,100.186,398.555,99.907,399.087
					L99.907,399.087z"/>
			</g>
		</g>
		<g>
			<g>
				<path fill="#644172" d="M111.178,393.738c-1.18,0.639-1.1,2.824-1.139,3.946c-0.077,2.241-0.061,4.688,0.42,6.891
					c0.106,0.486,0.656,0.753,1.113,0.633c0.252-0.067,0.434-0.16,0.619-0.347c0.252-0.255,0.259-0.593,0.116-0.902
					c-0.064-0.184-0.152-0.354-0.265-0.512c-0.184-0.282-0.572-0.282-0.756,0c-0.112,0.157-0.201,0.328-0.265,0.512
					c0.39-0.05,0.779-0.1,1.169-0.15c-0.185-0.187-0.367-0.279-0.619-0.347c0.221,0.291,0.443,0.582,0.664,0.873
					c-0.193-3.263-1.375-7.005-0.611-10.253C111.688,393.819,111.417,393.608,111.178,393.738L111.178,393.738z"/>
			</g>
		</g>
		<g>
			<g>
				<path fill="#644172" d="M108.203,398.468c1.145,0.171,2.307,0.204,3.462,0.247c1.129,0.041,2.567,0.314,3.534-0.37
					c0.255-0.18,0.255-0.508,0-0.688c-0.865-0.611-2.053-0.424-3.07-0.387c-1.309,0.048-2.629,0.07-3.926,0.264
					C107.739,397.603,107.739,398.399,108.203,398.468L108.203,398.468z"/>
			</g>
		</g>
		<g>
			<g>
				<path fill="#644172" d="M115.911,401.984c0.981,0.317,2.066,0.241,2.84-0.497c0.543-0.518,0.695-1.463,0.357-2.126
					c-1.087-2.129-4.066-0.195-4.646,1.367c-0.756,2.039,0.983,3.945,2.69,4.793c0.909,0.451,1.88,0.624,2.882,0.466
					c0.893-0.141,2.085-0.971,1.818-1.995c-0.087-0.332-0.439-0.516-0.764-0.434c-0.491,0.124-0.735,0.602-1.2,0.772
					c-0.473,0.173-0.988,0.08-1.458-0.047c-1.063-0.287-2.193-1.117-2.547-2.191c-0.335-1.016,0.797-2.595,1.921-2.362
					c0.383,0.078,0.363,0.59,0.236,0.859c-0.35,0.745-1.35,0.743-2.044,0.75C115.62,401.344,115.562,401.871,115.911,401.984
					L115.911,401.984z"/>
			</g>
		</g>
		<g>
			<g>
				<path fill="#644172" d="M134.262,389.74c0.161-0.22,0.322-0.439,0.483-0.659c0.635-0.52-0.467-1.481-0.918-0.708
					c-2.863,4.911-6.485,10.095-7.807,15.692c-0.221,0.936,0.986,1.782,1.695,0.986c0.457-0.513,0.602-0.715,0.668-1.384
					c0.055-0.55-0.648-0.886-1.082-0.621c-0.253,0.174-0.525,0.312-0.816,0.412c0.497,0.382,0.993,0.764,1.49,1.146
					c2.116-5.319,5.113-10.355,6.919-15.781c-0.375,0-0.751,0-1.127,0c-0.011,0.258-0.023,0.515-0.034,0.772
					C133.639,389.943,134.135,390.061,134.262,389.74L134.262,389.74z"/>
			</g>
		</g>
		<g>
			<g>
				<path fill="#644172" d="M137.199,394.483c1.749,0.263,3.449,0.227,5.209,0.081c1.947-0.159,4.219-0.086,6.031-0.838
					c0.374-0.154,0.397-0.636,0-0.783c-1.47-0.545-3.012-0.238-4.541-0.029c-2.188,0.3-4.359,0.54-6.567,0.587
					C136.789,393.513,136.624,394.396,137.199,394.483L137.199,394.483z"/>
			</g>
		</g>
		<g>
			<g>
				<path fill="#644172" d="M142.456,394.311c-1.299,0.827-1.555,2.767-1.81,4.155c-0.242,1.319-0.757,3.666-0.234,4.95
					c0.369,0.906,1.468,0.899,1.839,0c0.438-1.062,0.116-2.739,0.17-3.877c0.079-1.632,0.277-3.172,0.642-4.761
					C143.142,394.44,142.778,394.105,142.456,394.311L142.456,394.311z"/>
			</g>
		</g>
		<g>
			<g>
				<path fill="#644172" d="M146.661,398.998c-1.178,1.429-0.982,3.57-0.934,5.337c0.039,1.435,2.29,0.993,1.842-0.249
					c-0.056-0.154-0.039-0.378-0.066-0.557c-0.058-0.371-0.643-0.526-0.875-0.231c-0.071,0.044-0.142,0.089-0.212,0.133
					c0.396,0.302,0.791,0.603,1.187,0.904c0.005-0.831-0.122-1.659-0.175-2.488c-0.046-0.724-0.23-1.68,0.03-2.385
					C147.62,399.022,146.961,398.634,146.661,398.998L146.661,398.998z"/>
			</g>
		</g>
		<g>
			<g>
				<path fill="#644172" d="M147.017,396.461c-0.03,0.008-0.06,0.016-0.09,0.023c-0.444,0.11-0.732,0.615-0.599,1.055
					c0.002,0.008,0.005,0.016,0.007,0.024c0.152,0.499,0.619,0.728,1.113,0.632c0.127-0.025,0.242-0.085,0.359-0.139
					c0.578-0.27,0.513-1.158,0-1.446c-0.115-0.064-0.237-0.111-0.359-0.16c-0.28-0.11-0.685,0.016-0.88,0.232
					c-0.007,0.008-0.013,0.015-0.02,0.022c0.449,0.058,0.897,0.115,1.346,0.173c-0.024-0.044-0.048-0.087-0.073-0.131
					c0,0.221,0,0.44,0,0.661c0.017-0.03,0.033-0.062,0.05-0.092C148.172,396.763,147.572,396.156,147.017,396.461L147.017,396.461z"
					/>
			</g>
		</g>
		<g>
			<g>
				<path fill="#644172" d="M153.888,394.215c-1.121,3.248-0.93,7.005-0.876,10.396c0.006,0.398,0.292,0.885,0.723,0.949
					c0.187,0.028,0.336,0.029,0.523,0c0.421-0.065,0.729-0.55,0.723-0.949c-0.055-3.433-0.386-6.837-0.187-10.273
					C154.824,393.792,154.049,393.745,153.888,394.215L153.888,394.215z"/>
			</g>
		</g>
		<g>
			<g>
				<path fill="#644172" d="M150.484,399.98c0.752,0.525,2.105,0.388,2.973,0.412c1.13,0.031,3.025,0.471,3.934-0.33
					c0.217-0.191,0.217-0.594,0-0.785c-0.854-0.753-2.507-0.369-3.568-0.34c-0.958,0.026-2.506-0.16-3.338,0.422
					C150.253,399.521,150.253,399.819,150.484,399.98L150.484,399.98z"/>
			</g>
		</g>
		<g>
			<g>
				<path fill="#644172" d="M159.561,398.335c-0.039,1.813,0.778,3.595,0.521,5.413c-0.195,1.378,1.794,1.626,1.868,0.253
					c0.07-1.303,0.062-2.567,0.42-3.836c0.189-0.669,0.506-1.013,1.003-1.457c0.754-0.675,1.118-0.339,1.477,0.438
					c0.388,0.84,1.848,0.442,1.762-0.478c-0.105-1.121-0.729-1.938-1.814-2.276c-1.112-0.348-2.239,0.344-3.038,1.039
					c-1.745,1.519-1.824,4.434-1.711,6.57c0.623-0.084,1.246-0.169,1.868-0.253c-0.355-1.869-0.793-3.755-1.495-5.529
					C160.245,397.775,159.572,397.813,159.561,398.335L159.561,398.335z"/>
			</g>
		</g>
		<g>
			<g>
				<path fill="#644172" d="M171.98,398.687c-2.454-2.934-6.378,1.564-5.521,4.38c0.372,1.223,1.489,1.93,2.709,2.026
					c1.567,0.125,2.756-1.342,3.372-2.58c-0.617-0.261-1.235-0.521-1.852-0.781c-0.528,1.511,0.12,2.744,1.59,3.288
					c1.059,0.392,3.107,0.297,3.691-0.841c0.079-0.154,0.056-0.402-0.126-0.481c-0.876-0.38-3.759,0.109-3.2-1.427
					c0.395-1.084-1.332-1.796-1.852-0.781c-0.418,0.813-1.582,2.351-2.365,1.008c-0.309-0.529,0.043-1.239,0.306-1.693
					c0.626-1.081,1.755-1.492,2.935-1.357C172.092,399.495,172.198,398.946,171.98,398.687L171.98,398.687z"/>
			</g>
		</g>
		<g>
			<g>
				<path fill="#644172" d="M179.676,399.202c0.082-0.145,0.214-0.323,0.242-0.492c0.126-0.766-1.04-1.098-1.173-0.323
					c-0.334,1.947-0.306,3.98-0.405,5.948c-0.054,1.062,1.323,1.249,1.847,0.5c0.791-1.13,1.245-2.505,1.883-3.724
					c0.245-0.466,0.532-1.081,0.984-1.385c-0.167,0.112-0.173-0.095,0.073,0.248c0.164,0.229,0.314,0.486,0.349,0.77
					c0.148,1.192-0.227,2.499,0.251,3.642c0.557,1.332,2.031,1.455,2.836,0.28c0.241-0.352-0.003-0.861-0.392-0.964
					c-0.254-0.067-0.462-0.157-0.708-0.244c0.306,0.107,0.158,0.049,0.129-0.3c-0.059-0.728,0.011-1.462-0.022-2.19
					c-0.06-1.311-0.817-2.892-2.186-3.247c-2.642-0.686-3.994,4.521-4.91,6.114c0.616,0.166,1.231,0.333,1.847,0.5
					c-0.099-1.968-0.07-4.001-0.405-5.948c-0.133-0.774-1.299-0.442-1.173,0.323c0.028,0.169,0.161,0.348,0.242,0.492
					C179.134,399.461,179.53,399.461,179.676,399.202L179.676,399.202z"/>
			</g>
		</g>
		<g>
			<g>
				<path fill="#644172" d="M194.944,399.078c0.396-1.732-1.671-1.641-2.723-1.016c-2.249,1.337-3.619,3.25-2.979,5.984
					c0.662,2.826,3.888,1.813,5.353,0.454c2.603-2.413,3.312-7.189,3.73-10.5c0.124-0.974-1.449-1.371-1.852-0.502
					c-1.234,2.664-2.391,7.83,0.137,10.224c1.49,1.411,5.413,3.366,5.773-0.055c0.06-0.569-0.647-0.859-1.082-0.621
					c-1.996,1.095-3.414-0.616-3.918-2.48c-0.531-1.963-0.017-4.261,0.807-6.063c-0.618-0.168-1.235-0.335-1.852-0.502
					c-0.351,2.908-1.141,8.828-4.366,9.975c-1.276,0.454-1.023-1.572-0.946-2.053c0.112-0.691,0.433-1.022,0.899-1.493
					c0.444-0.448,2.039-2.257,2.49-1.283C194.521,399.375,194.891,399.31,194.944,399.078L194.944,399.078z"/>
			</g>
		</g>
		<g>
			<g>
				<path fill="#644172" d="M205.547,399.537c0.448,0.311,0.904,0.227,1.421,0.304c0.732,0.108,1.47,0.177,2.202,0.288
					c0.519,0.078,1.296,0.273,1.78-0.01c0.525-0.308,0.612-1.005,0.185-1.433c-0.399-0.399-1.196-0.317-1.72-0.366
					c-0.738-0.067-1.485-0.108-2.227-0.107c-0.388,0.001-1.229,0.079-1.501,0.403C205.51,398.828,205.226,399.314,205.547,399.537
					L205.547,399.537z"/>
			</g>
		</g>
		<g>
			<g>
				<path fill="#644172" d="M79.263,416.062c0-0.004,0.001-0.009,0.002-0.013c0.05-0.328-0.45-0.469-0.501-0.139
					c-0.2,1.299-0.37,2.616-0.421,3.979c-0.059,1.591-0.106,3.179-0.123,4.771c-0.005,0.531-0.098,1.139,0.216,1.604
					c0.48,0.712,1.641,0.042,1.156-0.676c-0.073-0.109-0.143-0.179-0.236-0.271c-0.188-0.187-0.497-0.187-0.685,0
					c-0.093,0.092-0.163,0.161-0.236,0.271c-0.484,0.718,0.676,1.388,1.156,0.676c0.3-0.445,0.222-1.011,0.217-1.52
					c-0.016-1.585-0.06-3.167-0.12-4.751c-0.052-1.397-0.22-2.751-0.425-4.083c-0.051-0.33-0.551-0.189-0.501,0.139
					c0,0.004,0.001,0.009,0.002,0.013C78.804,416.309,79.225,416.309,79.263,416.062L79.263,416.062z"/>
			</g>
		</g>
		<g>
			<g>
				<path fill="#644172" d="M82.204,417.85c-1.369,1.123-2.563,3.057-2.861,4.869c-0.389,2.361,3.004,3.48,4.787,3.716
					c0.953,0.126,1.059-1.345,0.218-1.611c-0.962-0.305-1.841-0.462-2.736-0.97c-0.957-0.542-0.745-1.11-0.457-2.013
					c0.419-1.313,1.181-2.459,1.389-3.794C82.575,417.843,82.367,417.716,82.204,417.85L82.204,417.85z"/>
			</g>
		</g>
		<g>
			<g>
				<path fill="#644172" d="M86.342,420.899c-0.357,1.643-0.328,3.419-0.427,5.094c-0.046,0.777,1.059,1.023,1.427,0.387
					c1.053-1.819,1.427-3.946,2.711-5.642c-0.498-0.065-0.995-0.13-1.492-0.195c0.591,1.713-0.333,5.364,2.284,5.735
					c0.65,0.092,1.04-0.548,0.624-1.071c-0.628-0.789-0.921-1.331-0.985-2.358c-0.058-0.924-0.035-1.855-0.348-2.739
					c-0.25-0.705-1.064-0.769-1.492-0.195c-1.277,1.714-1.601,3.851-2.623,5.692c0.476,0.129,0.951,0.258,1.427,0.387
					c-0.1-1.675-0.07-3.451-0.427-5.094C86.946,420.563,86.415,420.563,86.342,420.899L86.342,420.899z"/>
			</g>
		</g>
		<g>
			<g>
				<path fill="#644172" d="M95.271,421.844c-0.391-0.829-1.239-0.176-1.535,0.349c-0.492,0.871-0.455,2.127-0.158,3.051
					c0.522,1.623,2.401,2.233,3.869,1.608c1.29-0.549,2.113-2.046,1.87-3.413c-0.335-1.891-3.431-2.788-4.937-1.958
					c-0.364,0.201-0.41,0.838,0,1.025c1.02,0.466,2.806,0.043,3.407,1.145c0.114,0.209,0.083,0.494-0.024,0.82
					c-0.095,0.289-0.349,0.6-0.635,0.848c-0.553,0.48-1.277,0.491-1.862-0.084c-0.431-0.424-0.484-0.944-0.486-1.549
					c0-0.195-0.063-1.366,0.233-1.396C95.248,422.268,95.372,422.058,95.271,421.844L95.271,421.844z"/>
			</g>
		</g>
		<g>
			<g>
				<path fill="#644172" d="M101.168,421.852c-0.177,0.809-0.621,1.596-0.528,2.438c0.09,0.813,0.387,1.706,1.025,2.251
					c1.557,1.333,2.936-0.746,3.455-2.002c-0.515,0-1.03,0-1.545,0c0.32,1.158,0.991,2.157,2.27,2.265
					c1.063,0.088,2.063-0.756,2.656-1.544c0.625-0.831,1.001-1.938,0.567-2.937c-0.474-1.093-2.223-1.613-3.216-0.978
					c-0.419,0.269-0.523,1.013,0,1.254c0.495,0.229,1.487,0.15,1.689,0.511c-0.011-0.02,0.005,0.24-0.027,0.38
					c-0.062,0.266-0.193,0.492-0.338,0.721c-0.265,0.415-0.688,0.795-1.159,0.927c-0.454,0.127-0.743-0.505-0.897-1.024
					c-0.241-0.811-1.267-0.714-1.545,0c-0.246,0.63-0.785,1.884-1.254,0.741c-0.394-0.959,0.007-1.872-0.109-2.861
					C102.147,421.441,101.307,421.219,101.168,421.852L101.168,421.852z"/>
			</g>
		</g>
		<g>
			<g>
				<path fill="#644172" d="M111.387,421.579c-0.33,1.447-0.277,2.946-0.153,4.414c0.058,0.688,1.109,1.175,1.456,0.395
					c0.807-1.819,1.694-3.507,3.252-4.801c-0.467-0.124-0.935-0.247-1.402-0.371c0.486,1.379,0.404,2.898,1.004,4.247
					c0.41,0.921,1.826,2.37,2.782,1.173c0.123-0.155,0.178-0.348,0.068-0.53c-0.196-0.327-0.507-0.588-0.837-0.775
					c-0.401-0.227-0.548-0.876-0.663-1.275c-0.311-1.081-0.342-2.226-0.735-3.284c-0.228-0.613-0.901-0.802-1.402-0.371
					c-1.66,1.427-2.737,3.355-3.493,5.386c0.502,0,1.004,0,1.507,0c-0.504-1.356-0.474-2.81-0.793-4.206
					C111.908,421.288,111.453,421.287,111.387,421.579L111.387,421.579z"/>
			</g>
		</g>
		<g>
			<g>
				<path fill="#644172" d="M126.963,420.885c1.057,1.761,1.364,3.719,1.883,5.672c0.169,0.637,0.985,0.831,1.447,0.382
					c0.894-0.87,1.461-2.045,2.001-3.153c0.53-1.088,1.288-2.408,1.488-3.612c0.16-0.961-1.092-1.617-1.637-0.69
					c-1.175,2-1.528,4.405-3.078,6.231c0.482,0.128,0.965,0.255,1.447,0.382c-0.771-2.025-1.354-4.122-2.853-5.75
					C127.316,419.97,126.705,420.454,126.963,420.885L126.963,420.885z"/>
			</g>
		</g>
		<g>
			<g>
				<path fill="#644172" d="M136.929,422.077c-0.308-0.35-0.631-0.554-1.106-0.431c-0.557,0.144-0.965,0.633-1.235,1.109
					c-0.459,0.812-0.555,1.931-0.432,2.844c0.174,1.296,1.337,1.937,2.548,1.532c1.03-0.345,2.001-1.156,2.537-2.101
					c0.647-1.141,0.125-2.554-1.318-2.545c-0.382,0.002-0.855,0.154-1.06,0.503c-0.262,0.447,0.083,0.911,0.522,1.049
					c0.091,0.03,0.09,0.028-0.005-0.008c0.114,0.058,0.202,0.086,0.318,0.113c0.104,0.025,0.206,0.066,0.309,0.099
					c0.087,0.032,0.059,0.021-0.084-0.036c0.063,0.03,0.177,0.127-0.043-0.049c0.055,0.044,0.132,0.16-0.04-0.07
					c0.043,0.058,0.082,0.187-0.025-0.086c0.075,0.189-0.002-0.232,0.003-0.021c0.005,0.195,0.06-0.22-0.011,0.046
					c-0.008,0.027-0.017,0.056-0.027,0.083c-0.055,0.163,0.09-0.196,0.016-0.035c-0.042,0.093-0.095,0.18-0.148,0.266
					c-0.03,0.048-0.214,0.297-0.057,0.094c-0.071,0.092-0.148,0.179-0.227,0.265c-0.15,0.162-0.315,0.311-0.486,0.45
					c0.183-0.149-0.075,0.052-0.119,0.082c-0.097,0.066-0.198,0.126-0.3,0.184c-0.082,0.046-0.167,0.086-0.252,0.124
					c0.235-0.105-0.082,0.02-0.147,0.038c-0.032,0.008-0.064,0.016-0.097,0.022c-0.176,0.038,0.208-0.02,0.034-0.004
					c-0.045,0.005-0.091,0.004-0.136,0.003c-0.169-0.002,0.211,0.04,0.049,0.01c-0.223-0.042,0.021,0.027-0.038-0.004
					c-0.161-0.084,0.104,0.129-0.064-0.065c0.214,0.248-0.074-0.218,0.038,0.057c-0.047-0.115-0.073-0.239-0.096-0.361
					c0.034,0.188-0.007-0.184-0.009-0.24c-0.005-0.188,0.009-0.376,0.026-0.563c0.037-0.405,0.015-0.799,0.192-1.176
					c0.092-0.196,0.214-0.392,0.37-0.543c0.065-0.064,0.164-0.076,0.236-0.147c0.261-0.262-0.286-0.08-0.062,0.066
					C136.854,422.858,137.182,422.365,136.929,422.077L136.929,422.077z"/>
			</g>
		</g>
		<g>
			<g>
				<path fill="#644172" d="M141.384,415.819c-0.849,1.686-0.595,3.982-0.527,5.799c0.038,1.006-0.18,4.483,1.205,4.864
					c1.399,0.386,0.417-2.588,0.345-3.025c-0.378-2.272-0.809-5.076-0.395-7.372C142.077,415.724,141.57,415.449,141.384,415.819
					L141.384,415.819z"/>
			</g>
		</g>
		<g>
			<g>
				<path fill="#644172" d="M144.249,421.074c-0.98,1.67-0.668,4.315,1.391,4.962c2.26,0.71,3.556-2.11,3.834-3.824
					c0.168-1.037-1.412-1.485-1.588-0.438c-0.197,1.172-0.145,2.399,0.595,3.383c0.624,0.829,2.052,1.423,2.82,0.456
					c0.127-0.16,0.184-0.421,0-0.574c-0.404-0.337-0.927-0.38-1.336-0.699c-0.589-0.46-0.594-1.471-0.491-2.128
					c-0.529-0.146-1.059-0.292-1.588-0.438c-0.125,0.826-0.552,2.961-1.822,2.724c-1.204-0.225-0.866-2.371-0.884-3.172
					C145.169,420.833,144.504,420.639,144.249,421.074L144.249,421.074z"/>
			</g>
		</g>
		<g>
			<g>
				<path fill="#644172" d="M153.949,422.326c0.147,1.335,0.337,2.654,0.313,4c-0.015,0.807,0.988,0.947,1.401,0.38
					c0.915-1.257,1.542-2.671,2.38-3.973c-0.492-0.064-0.983-0.128-1.475-0.192c0.301,0.8,0.28,1.61,0.274,2.452
					c-0.005,0.638,0.713,1.038,1.259,0.723c1.557-0.899,2.297-2.479,2.75-4.158c-0.53,0.069-1.06,0.138-1.589,0.207
					c0.582,0.98,1.077,4.405,2.625,4.297c0.527-0.037,0.837-0.461,0.742-0.974c-0.117-0.633-0.666-1.328-0.901-1.951
					c-0.287-0.762-0.546-1.548-0.965-2.249c-0.382-0.641-1.393-0.527-1.589,0.207c-0.329,1.233-0.774,2.482-1.918,3.176
					c0.42,0.241,0.839,0.481,1.259,0.723c-0.013-0.98-0.02-1.961-0.392-2.882c-0.253-0.628-1.082-0.837-1.475-0.192
					c-0.809,1.321-1.401,2.75-2.286,4.027c0.467,0.127,0.935,0.253,1.401,0.38c-0.124-1.439-0.504-2.766-1.035-4.105
					C154.581,421.838,153.896,421.844,153.949,422.326L153.949,422.326z"/>
			</g>
		</g>
		<g>
			<g>
				<path fill="#644172" d="M165.905,423.726c1.32,0.204,3.96,0.089,4.032-1.738c0.036-0.911-0.995-1.551-1.709-1.843
					c-0.957-0.392-2,0.146-2.728,0.728c-1.548,1.238-2.124,3.782-0.496,5.14c1.439,1.199,4.463,1.824,6.137,0.768
					c0.382-0.241,0.632-0.839,0.327-1.246c-0.411-0.547-0.955-0.728-1.562-0.333c-0.373,0.241-0.479,0.774-0.142,1.102
					c0.195,0.189,0.376,0.289,0.629,0.383c-0.212-0.278-0.425-0.558-0.638-0.837c0.005,0.049,0.01,0.097,0.015,0.146
					c0.223-0.293,0.446-0.585,0.668-0.878c-0.983,0.275-1.861,0.332-2.871,0.104c-0.518-0.117-1.035-0.328-1.447-0.668
					c-0.472-0.389-0.314-0.888-0.139-1.401c0.346-1.014,1.374-1.84,2.328-1.075c0.042-0.025,0.083-0.052,0.124-0.077
					c-0.091,0.094-0.195,0.169-0.313,0.225c-0.217,0.13-0.463,0.204-0.701,0.282c-0.497,0.164-1,0.32-1.514,0.423
					C165.517,423.005,165.499,423.662,165.905,423.726L165.905,423.726z"/>
			</g>
		</g>
		<g>
			<g>
				<path fill="#644172" d="M175.412,427.16c-0.26,0.75-0.194,1.624-0.312,2.405c-0.06,0.396-0.156,0.809-0.349,1.16
					c-0.201,0.367-0.526,0.524-0.667,0.957c-0.127,0.394,0.146,0.941,0.575,1.012c2.61,0.428,2.51-4.01,1.957-5.534
					C176.404,426.572,175.62,426.56,175.412,427.16L175.412,427.16z"/>
			</g>
		</g>
		<g>
			<g>
				<path fill="#644172" d="M79.676,438.039c-1.331,1.176-2.696,7.795,0.479,7.41c2.337-0.282,3.991-4.334,4.579-6.244
					c-0.523-0.071-1.047-0.142-1.571-0.213c-0.011,1.848-0.051,9.105,3.671,6.95c0.32-0.186,0.806-0.992,0.31-1.261
					c-0.687-0.371-1.372,0.322-1.816-0.441c-0.838-1.44-0.573-3.644-0.565-5.248c0.004-0.919-1.309-1.067-1.571-0.213
					c-0.484,1.581-1.362,3.173-2.41,4.449c-0.203,0.247-0.431,0.475-0.699,0.649c-0.196,0.128-0.303-0.846-0.337-1.104
					c-0.168-1.278-0.057-3.1,0.568-4.242C80.541,438.116,80.019,437.735,79.676,438.039L79.676,438.039z"/>
			</g>
		</g>
		<g>
			<g>
				<path fill="#644172" d="M88.627,439.992c-0.225,1.736-0.061,3.584-0.043,5.334c0.008,0.824,1.151,0.944,1.399,0.189
					c0.676-2.054,1.123-4.526,2.83-6.007c-0.416-0.172-0.832-0.345-1.248-0.517c0.015,1.503,0.399,8,3.059,6.874
					c0.298-0.127,0.422-0.593,0.156-0.796c-0.435-0.333-0.695-0.587-0.922-1.179c-0.58-1.509-0.806-3.288-0.831-4.899
					c-0.01-0.665-0.776-0.931-1.248-0.517c-1.898,1.663-2.427,4.365-3.17,6.661c0.466,0.063,0.933,0.126,1.399,0.189
					c-0.027-1.807-0.437-3.643-0.722-5.423C89.221,439.493,88.671,439.653,88.627,439.992L88.627,439.992z"/>
			</g>
		</g>
		<g>
			<g>
				<path fill="#644172" d="M97.017,434.582c-0.358,2.449-0.213,4.955,0.163,7.396c0.135,0.876,0.17,3.389,1.416,3.5
					c0.296,0.026,0.61-0.286,0.583-0.583c-0.022-0.235-0.092-0.363-0.239-0.545c-0.151-0.187-0.463-0.154-0.619,0
					c-0.044,0.046-0.09,0.09-0.137,0.133c0.305,0.039,0.61,0.079,0.915,0.118c0.201,0.313-0.164-0.836-0.221-1.054
					c-0.196-0.756-0.348-1.523-0.488-2.292c-0.403-2.21-0.486-4.454-0.815-6.673C97.534,434.306,97.058,434.305,97.017,434.582
					L97.017,434.582z"/>
			</g>
		</g>
		<g>
			<g>
				<path fill="#644172" d="M100.681,438.711c-1.04,0.847-4.403,3.817-2.795,5.335c0.745,0.702,1.792,1.178,2.692,1.639
					c0.639,0.327,2.104,1.264,2.737,0.488c0.206-0.253,0.256-0.527,0.106-0.825c-0.263-0.523-1.066-0.63-1.555-0.843
					c-0.858-0.375-1.692-0.819-2.492-1.304c-0.289-0.175-0.502-0.52-0.332-0.081c-0.133-0.341,0.29-0.935,0.442-1.217
					c0.493-0.91,1.124-1.812,1.76-2.63C101.559,438.87,101.085,438.382,100.681,438.711L100.681,438.711z"/>
			</g>
		</g>
		<g>
			<g>
				<path fill="#644172" d="M103.896,440.549c-0.401,1.882-0.346,3.861-0.417,5.777c-0.032,0.842,1.108,1.076,1.522,0.412
					c1.092-1.747,1.448-4.281,3.383-5.357c-0.419-0.24-0.838-0.481-1.258-0.722c0.001,1.344,0.05,2.693,0.411,3.995
					c0.255,0.918,1.09,2.583,2.289,2.009c0.127-0.061,0.184-0.206,0.193-0.337c0.056-0.786-0.747-1.624-0.956-2.386
					c-0.29-1.057-0.266-2.194-0.266-3.281c0-0.644-0.707-1.028-1.258-0.722c-2.222,1.235-2.848,3.874-3.951,5.977
					c0.507,0.137,1.015,0.274,1.522,0.412c-0.072-1.916-0.016-3.896-0.417-5.777C104.61,440.152,103.981,440.152,103.896,440.549
					L103.896,440.549z"/>
			</g>
		</g>
		<g>
			<g>
				<path fill="#644172" d="M113.795,441.043c-0.129-0.097-0.082-0.108-0.006,0.044c-0.097-0.194-0.37-0.303-0.574-0.233
					c-1.169,0.393-1.771,1.973-1.714,3.111c0.074,1.488,1.233,2.379,2.629,2.521c2.083,0.21,3.43-2.042,3.597-3.831
					c0.085-0.91-0.243-1.767-0.971-2.318c-0.83-0.628-2.268-0.295-2.924,0.409c-0.316,0.339-0.365,1.055,0.283,1.043
					c0.536-0.01,1.059-0.188,1.59-0.151c0.152,0.011,0.238,0.116,0.332,0.294c0.061,0.114,0.11,0.543,0.074,0.806
					c-0.118,0.858-0.685,2.08-1.66,2.197c-1.811,0.216-1.808-2.337-0.741-3.231c0.133-0.112,0.179-0.333,0.131-0.494
					c-0.07,0.148-0.141,0.298-0.211,0.446C113.983,441.656,114.042,441.227,113.795,441.043L113.795,441.043z"/>
			</g>
		</g>
		<g>
			<g>
				<path fill="#644172" d="M119.806,441.191c-0.248,1.498,0.303,3.04,1.559,3.932c1.554,1.104,2.532-0.754,2.952-1.941
					c-0.434,0.057-0.868,0.113-1.302,0.17c1.061,1.638,2.933,3.155,4.839,1.782c1.203-0.867,1.974-2.839,0.816-4.044
					c-0.396-0.413-1.683-0.796-1.995-0.074c-0.341,0.788,0.491,0.78,0.933,1.135c0.499,0.4-0.236,1.399-0.525,1.688
					c-1.052,1.051-2.277-0.368-2.838-1.205c-0.41-0.612-1.263-0.348-1.328,0.359c-0.088,0.961-0.58,1.475-1.325,0.737
					c-0.617-0.612-0.784-1.575-0.789-2.403C120.8,440.77,119.902,440.612,119.806,441.191L119.806,441.191z"/>
			</g>
		</g>
		<g>
			<g>
				<path fill="#644172" d="M131.223,440.214c-0.286,1.791,0,3.638-0.005,5.445c-0.001,0.557,0.636,0.938,1.121,0.644
					c1.054-0.644,1.72-1.534,2.279-2.621c0.593-1.15,0.983-2.554,2.065-3.36c-0.375-0.152-0.751-0.306-1.126-0.458
					c0.352,2.446,0.628,5.22,2.504,7.032c0.76,0.734,1.785-0.35,1.138-1.139c-1.489-1.813-1.843-4.042-2.164-6.302
					c-0.065-0.464-0.757-0.731-1.126-0.458c-2.091,1.551-2.176,4.592-4.322,6.019c0.374,0.215,0.747,0.43,1.121,0.644
					c-0.065-1.811-0.324-3.667-0.671-5.445C131.959,439.816,131.289,439.803,131.223,440.214L131.223,440.214z"/>
			</g>
		</g>
		<g>
			<g>
				<path fill="#644172" d="M153.313,437.572c-0.077,0.423-0.166,0.845-0.229,1.271c-0.105,0.703,0.89,1.022,1.092,0.301
					c0.391-1.394-0.026-3.295-1.754-3.416c-1.78-0.125-3.003,1.5-3.391,3.064c-0.455,1.837,0.455,3.949,1.872,5.121
					c1.363,1.127,3.759,1.202,4.654-0.573c0.305-0.604-0.317-1.292-0.941-0.94c-1.018,0.574-1.7,1.137-2.779,0.271
					c-0.883-0.711-1.373-1.869-1.404-2.983c-0.027-0.981,0.567-2.192,1.532-2.539c1.18-0.425,1.145,1.123,1.098,1.846
					c0.371-0.05,0.742-0.101,1.112-0.15c-0.063-0.426-0.153-0.848-0.229-1.271C153.888,437.258,153.37,437.258,153.313,437.572
					L153.313,437.572z"/>
			</g>
		</g>
		<g>
			<g>
				<path fill="#644172" d="M160.275,438.993c0.061-0.548-0.577-0.431-0.875-0.269c-0.756,0.41-1.212,1.485-1.521,2.236
					c-0.959,2.324,1.219,4.128,3.454,3.921c2.191-0.203,4.059-2.135,3.324-4.385c-0.387-1.185-1.338-1.935-2.476-2.337
					c-0.889-0.313-2.744-0.467-3.466,0.25c-0.136,0.135-0.135,0.363,0,0.498c0.403,0.4,1.042,0.414,1.582,0.507
					c0.733,0.126,1.461,0.25,2.106,0.642c1.382,0.84,0.809,2.511-0.446,3.033c-0.982,0.408-2.819,0.249-2.816-1.128
					c0.001-0.58,0.217-1.165,0.454-1.687c0.102-0.224,0.204-0.443,0.322-0.659c0.055-0.078,0.097-0.161,0.128-0.251
					c0.152-0.477-0.126,0.314-0.352-0.215C159.83,439.472,160.246,439.26,160.275,438.993L160.275,438.993z"/>
			</g>
		</g>
		<g>
			<g>
				<path fill="#644172" d="M166.601,438.759c0.402,2.067-0.025,4.158-0.106,6.234c-0.031,0.786,1.126,1.109,1.493,0.404
					c1.068-2.054,1.608-4.424,3.232-6.147c-0.466-0.123-0.932-0.245-1.397-0.368c0.637,2.006,0.876,4.018,0.978,6.111
					c0.03,0.612,0.685,1.052,1.246,0.715c0.44-0.264,0.658-0.526,0.64-1.049c-0.012-0.347-0.413-0.509-0.667-0.276
					c0.009-0.035,0.018-0.069,0.027-0.104c0.137,0.238,0.273,0.477,0.41,0.715c0.059-2.201-0.353-4.467-1.022-6.557
					c-0.185-0.576-0.95-0.847-1.397-0.368c-1.725,1.84-2.423,4.268-3.434,6.521c0.498,0.135,0.996,0.27,1.493,0.404
					c-0.042-2.182,0.064-4.375-0.772-6.434C167.145,438.117,166.507,438.275,166.601,438.759L166.601,438.759z"/>
			</g>
		</g>
		<g>
			<g>
				<path fill="#644172" d="M177.964,439.234c-0.061,0.372-0.16,0.586,0.134,0.887c0.124,0.127,0.334,0.19,0.506,0.134
					c0.058-0.02,0.115-0.038,0.173-0.058c0.175-0.058,0.354-0.196,0.39-0.39c0.248-1.349-0.421-2.901-2.031-2.171
					c-1.387,0.63-2.508,2.168-2.611,3.689c-0.126,1.862,0.72,3.462,2.557,4.026c1.552,0.476,4.008-0.159,4.693-1.746
					c0.17-0.396-0.113-1.001-0.626-0.815c-0.92,0.333-1.679,0.97-2.682,1.08c-1.009,0.11-1.953-0.349-2.297-1.331
					c-0.33-0.941-0.046-1.93,0.542-2.688c0.276-0.354,0.61-0.652,0.997-0.879c0.127-0.074,0.309-0.033,0.235-0.132
					c0.06,0.079,0.124,0.571,0.155,0.543c0.168-0.045,0.337-0.089,0.506-0.134c0.008-0.005,0.015-0.011,0.023-0.017
					C178.55,438.921,178.021,438.891,177.964,439.234L177.964,439.234z"/>
			</g>
		</g>
		<g>
			<g>
				<path fill="#644172" d="M185.296,441.407c1.394-0.067,2.714-2.121,2.253-3.433c-0.33-0.937-1.313-1.016-2.15-0.815
					c-0.799,0.191-1.396,0.962-1.682,1.683c-0.597,1.505-0.199,3.313,0.825,4.527c0.544,0.646,1.387,0.968,2.216,0.97
					c0.901,0.002,2.338-0.512,2.519-1.501c0.059-0.322-0.084-0.772-0.469-0.826c-0.994-0.14-1.792,0.894-2.758,0.285
					c-0.654-0.412-0.835-1.429-0.828-2.129c0.004-0.356,0.1-0.696,0.279-1.003c0.08-0.136,0.193-0.229,0.325-0.312
					c0.317-0.197,0.415,0.096,0.19-0.232c-0.101-0.147-0.024,0.054-0.058,0.211c-0.052,0.242-0.145,0.492-0.244,0.718
					c-0.17,0.388-0.393,0.861-0.711,1.15C184.74,440.939,184.94,441.425,185.296,441.407L185.296,441.407z"/>
			</g>
		</g>
		<g>
			<g>
				<path fill="#644172" d="M192.079,437.622c-1.659,1.03-1.292,3.716-1.348,5.371c-0.024,0.705,0.773,1.084,1.351,0.774
					c2.023-1.085,2.766-3.858,4.037-5.628c-0.581-0.075-1.161-0.151-1.741-0.228c0.292,1.415-0.253,5.131,1.444,5.893
					c1.652,0.741,3.65,0.252,3.267-1.938c-0.062-0.353-0.567-0.458-0.796-0.21c-0.337,0.365-0.529,0.851-1.084,0.698
					c-0.653-0.18-0.647-1.187-0.701-1.72c-0.109-1.077-0.071-2.164-0.293-3.229c-0.182-0.877-1.307-0.846-1.741-0.228
					c-1.07,1.522-1.699,3.982-3.297,5.04c0.45,0.258,0.9,0.517,1.351,0.774c-0.096-1.641-0.432-3.313,0.184-4.886
					C192.851,437.748,192.379,437.436,192.079,437.622L192.079,437.622z"/>
			</g>
		</g>
		<g>
			<g>
				<path fill="#644172" d="M200.282,431.897c-0.64,1.716-0.071,4.318,0.126,6.082c0.225,2.005,0.314,4.73,1.417,6.479
					c0.506,0.803,1.579,0.249,1.447-0.61c-0.309-2.028-0.934-4.048-1.291-6.081c-0.322-1.837-0.304-4.145-1.006-5.869
					C200.84,431.565,200.413,431.549,200.282,431.897L200.282,431.897z"/>
			</g>
		</g>
		<g>
			<g>
				<path fill="#644172" d="M198.674,438.88c0.127-0.178,1.199-0.062,1.4-0.058c0.844,0.014,1.68,0.031,2.524-0.009
					c1.014-0.048,2.809-0.16,3.126-1.369c0.079-0.298-0.142-0.539-0.429-0.563c-0.633-0.055-1.33,0.229-1.955,0.333
					c-0.885,0.147-1.784,0.134-2.675,0.212c-0.92,0.081-2.405,0.077-2.792,1.117C197.689,439.041,198.405,439.254,198.674,438.88
					L198.674,438.88z"/>
			</g>
		</g>
		<g>
			<g>
				<path fill="#644172" d="M206.293,438.993c-0.195,1.498-0.202,3.011,0.059,4.502c0.127,0.729,1.226,0.52,1.245-0.169
					c0.032-1.107-0.025-2.226,0.136-3.324c0.217-1.484,1.597-3.102,2.576-0.96c0.355,0.777,1.695,0.216,1.385-0.584
					c-0.735-1.895-3.273-2.746-4.565-0.842c-1.105,1.63-0.877,3.845-0.8,5.71c0.415-0.057,0.83-0.112,1.245-0.169
					c-0.374-1.365-0.426-2.768-0.609-4.164C206.908,438.562,206.349,438.562,206.293,438.993L206.293,438.993z"/>
			</g>
		</g>
		<g>
			<g>
				<path fill="#644172" d="M216.332,438.892c-0.843-3.673-6.806,1.119-4.896,3.829c0.699,0.992,2.085,1.062,3.135,0.671
					c1.335-0.498,2.043-1.683,2.114-3.065c0.037-0.713-1.018-0.995-1.347-0.365c-0.667,1.278-0.567,2.789,0.892,3.435
					c1.018,0.449,3.072,0.37,3.352-0.99c0.042-0.205-0.088-0.352-0.286-0.376c-0.93-0.112-3.704,0.697-2.709-1.338
					c-0.449-0.122-0.898-0.243-1.347-0.365c-0.027,1.077-1.201,2.154-2.314,1.659c-0.959-0.428,1.364-4.449,2.767-2.722
					C215.95,439.582,216.411,439.234,216.332,438.892L216.332,438.892z"/>
			</g>
		</g>
		<g>
			<g>
				<path fill="#644172" d="M220.275,432.229c-0.62,1.498-0.434,3.723-0.412,5.317c0.024,1.749,0.134,3.991,1.125,5.488
					c0.478,0.722,1.507,0.252,1.356-0.572c-0.34-1.861-0.824-3.607-0.964-5.521c-0.107-1.447,0.144-3.357-0.397-4.712
					C220.843,431.877,220.417,431.885,220.275,432.229L220.275,432.229z"/>
			</g>
		</g>
		<g>
			<g>
				<path fill="#644172" d="M218.198,438.348c1.016,0.306,2.133,0.376,3.188,0.318c0.689-0.037,2.578-0.352,2.278-1.441
					c-0.228-0.827-2.301-0.125-2.842-0.1c-0.889,0.042-2.117-0.105-2.787,0.608C217.845,437.937,217.929,438.267,218.198,438.348
					L218.198,438.348z"/>
			</g>
		</g>
		<g>
			<g>
				<path fill="#644172" d="M224.534,438.875c-0.175,0.651-0.234,1.345-0.281,2.016c-0.039,0.545-0.048,1.174,0.222,1.663
					c0.357,0.646,1.546,0.399,1.459-0.395c-0.119-1.076-0.261-2.24-0.542-3.284C225.278,438.449,224.647,438.449,224.534,438.875
					L224.534,438.875z"/>
			</g>
		</g>
		<g>
			<g>
				<path fill="#644172" d="M225.189,434.659c-0.034,0.572,0.339,0.966,0.854,1.145c0.358,0.124,0.789-0.077,0.97-0.395
					c-0.054,0.06-0.107,0.119-0.161,0.179c0.471-0.281,0.417-0.898,0-1.19c-0.029-0.021-0.058-0.041-0.087-0.062
					c0.116,0.15,0.231,0.301,0.347,0.451c-0.004-0.013-0.008-0.026-0.013-0.04c-0.08-0.259-0.308-0.56-0.6-0.6
					c-0.153-0.033-0.14-0.013,0.04,0.06c0.068,0.117,0.136,0.234,0.205,0.351c-0.012-0.034-0.024-0.069-0.036-0.104
					C226.423,433.619,225.242,433.777,225.189,434.659L225.189,434.659z"/>
			</g>
		</g>
		<g>
			<g>
				<path fill="#644172" d="M229.525,438.616c-1.384,0.437-2.994,1.566-2.709,3.244c0.291,1.716,2.554,2.227,4.007,1.921
					c1.296-0.273,1.895-1.635,1.5-2.829c-0.467-1.408-2.236-2.491-3.679-1.93c-0.592,0.231-0.636,1.032,0,1.247
					c0.68,0.23,1.556,0.263,2.023,0.889c0.29,0.39,0.372,0.864-0.079,1.123c-0.623,0.356-2.186,0.078-2.415-0.657
					c-0.266-0.856,0.874-1.971,1.56-2.254C230.184,439.184,230.018,438.461,229.525,438.616L229.525,438.616z"/>
			</g>
		</g>
		<g>
			<g>
				<path fill="#644172" d="M232.957,439.42c0.34,1.492-0.283,2.952,0.634,4.318c0.314,0.469,0.859,0.508,1.282,0.165
					c1.42-1.15,2.28-2.814,3.692-3.976c-0.484-0.2-0.969-0.401-1.453-0.602c0.135,1.559,0.955,2.761,2.339,3.497
					c1.187,0.631,3.044,0.436,3.41-1.009c0.09-0.354-0.176-0.759-0.565-0.741c-0.524,0.023-1.308,0.364-1.769,0.293
					c-0.935-0.145-1.627-1.168-1.713-2.04c-0.074-0.759-0.86-1.101-1.453-0.602c-1.399,1.177-2.253,2.837-3.642,4.024
					c0.385,0,0.77,0,1.154,0c-0.904-1.025-0.426-2.596-1.329-3.672C233.304,438.79,232.885,439.103,232.957,439.42L232.957,439.42z"
					/>
			</g>
		</g>
	</g>
	<g>
		<g>
			<path fill="#333333" d="M365.553,459.958c-4.914-3.675-13.277-0.512-18.232,1.37c-5.983,2.273-13.186,5.717-17.072,11.041
				c-0.845,1.157,1.026,2.568,1.971,1.52c2.356-2.617,3.969-5.368,4.371-8.887c0.096-0.846-0.872-1.388-1.592-1.213
				c-5.429,1.32-7.854,6.694-9.545,11.546c-0.217,0.624,0.241,1.406,0.878,1.547c1.817,0.402,10.714-0.424,10.892-0.093
				c0.324,0.604,1.218,0.563,1.552,0c2.09-3.53-10.512-2.054-11.774-2.333c0.292,0.516,0.585,1.031,0.878,1.547
				c1.377-3.953,3.294-8.695,7.788-9.788c-0.531-0.404-1.062-0.809-1.592-1.213c-0.337,2.954-1.733,5.002-3.629,7.113
				c0.657,0.507,1.313,1.013,1.971,1.52c3.337-4.581,9.717-7.433,14.716-9.718c5.225-2.388,12.365-5.354,18.085-3.159
				C365.718,460.95,365.916,460.229,365.553,459.958L365.553,459.958z"/>
		</g>
	</g>
	<g>
		<g>
			<path fill="#644172" d="M229.998,416.766c18.174,1.673,35.28,6.38,46.604,21.833c9.983,13.623,9.585,31.71,8.255,47.737
				c0.572-0.328,1.145-0.657,1.717-0.985c-3.453-1.783-5.381-5.207-7.588-8.259c-0.599,0.462-1.198,0.924-1.797,1.386
				c3.282,2.957,5.198,6.941,7.818,10.438c0.55,0.733,1.431,0.728,1.982,0c1.378-1.819,3.792-5.423,6.441-5.423
				c1.522,0,1.451-2.483,0-2.313c-0.478,0.056-0.955,0.112-1.432,0.172c-1.266,0.154-1.266,1.814,0,1.969
				c0.477,0.06,0.955,0.116,1.432,0.172c1.451,0.171,1.522-2.313,0-2.313c-3.667,0-6.485,4.016-8.423,6.577c0.661,0,1.321,0,1.982,0
				c-2.746-3.66-4.743-7.802-8.182-10.896c-0.918-0.827-2.595,0.284-1.797,1.386c2.439,3.371,4.601,7.109,8.412,9.075
				c0.807,0.416,1.645-0.108,1.717-0.985c1.404-17.03,1.503-36.04-9.652-50.159c-11.121-14.075-29.632-21.596-47.489-20.271
				C229.441,415.947,229.448,416.715,229.998,416.766L229.998,416.766z"/>
		</g>
	</g>
	<g>
		<g>
			<path fill="#1C758A" d="M344.567,308.649c-4.243,1.554-7.787,4.638-11.396,7.272c-5.083,3.711-10.462,6.594-16.763,7.483
				c0.364,0.473,0.728,0.946,1.091,1.419c1.231-2.108,1.931-4.048,2.134-6.487c0.079-0.946-1.396-1.346-1.805-0.489
				c-1.158,2.425-2.176,4.909-3.333,7.334c-0.24,0.504-0.088,1.323,0.579,1.424c2.476,0.372,3.79,1.982,5.91,2.992
				c0.708,0.337,1.361-0.479,0.833-1.08c-1.742-1.983-3.589-3.386-6.229-3.781c0.193,0.475,0.386,0.949,0.579,1.424
				c1.158-2.425,2.176-4.909,3.333-7.334c-0.602-0.163-1.204-0.326-1.805-0.489c-0.064,2.021-0.687,3.858-1.866,5.513
				c-0.469,0.805,0.297,1.532,1.091,1.419c10.832-1.542,19.731-9.366,28.003-16.005C345.21,309.035,344.903,308.526,344.567,308.649
				L344.567,308.649z"/>
		</g>
	</g>
	<g>
		<g>
			<path fill="#1C758A" d="M346.295,285.67c0.478-7.826-4.023-12.297-10.294-16.113c-7.391-4.497-16-7.602-24.406-9.511
				c-0.699-0.159-1.468,0.467-1.221,1.221c0.55,1.677,1.114,3.296,1.296,5.07c0.128,1.252,2.07,1.295,1.989,0
				c-0.164-2.612-0.844-4.895-2.133-7.17c-0.287,0.5-0.574,1-0.861,1.501c2.741-0.118,5.512-0.359,8.181-1.009
				c0.619-0.15,0.682-1.207,0-1.311c-2.753-0.419-5.409,0.203-8.181,0.324c-0.753,0.033-1.246,0.823-0.861,1.501
				c1.194,2.104,1.714,3.763,1.867,6.164c0.663,0,1.326,0,1.989,0c-0.201-1.949-0.758-3.735-1.371-5.597
				c-0.407,0.407-0.814,0.813-1.221,1.221c12.685,2.854,32.726,8.771,34.633,23.709C345.749,286.042,346.271,286.062,346.295,285.67
				L346.295,285.67z"/>
		</g>
	</g>
	<g>
		<g>
			<path fill="#333333" d="M324.822,115.098c-6.172-1.341-12.061,1.339-16.201,5.863c0.525,0.405,1.05,0.811,1.576,1.216
				c1.413-2.183,2.583-4.454,3.473-6.896c0.392-1.073-1.02-1.619-1.743-1.015c-2.646,2.213-4.058,5.177-4.947,8.457
				c-0.211,0.776,0.521,1.513,1.299,1.299c2.11-0.579,4.215-0.619,6.386-0.599c1.401,0.013,1.4-2.191,0-2.172
				c-2.354,0.032-4.668,0.102-6.947,0.734c0.433,0.433,0.866,0.866,1.299,1.299c0.792-2.951,2.009-5.544,4.386-7.543
				c-0.581-0.338-1.162-0.676-1.743-1.015c-0.822,2.275-1.912,4.392-3.194,6.438c-0.602,0.959,0.814,2.073,1.576,1.216
				c4.033-4.541,8.73-5.877,14.624-6.116C325.312,116.238,325.5,115.246,324.822,115.098L324.822,115.098z"/>
		</g>
	</g>
</g>
</svg>
